<svg height="443pt" viewBox="0 -1 443.41921 443" width="443pt" xmlns="http://www.w3.org/2000/svg"><path d="m427.96875 380.664062c10.859375 10.816407 12.558594 27.796876 4.066406 40.550782-8.496094 12.753906-24.820312 17.726562-38.984375 11.875-14.164062-5.847656-22.21875-20.894532-19.234375-35.925782 2.980469-15.03125 16.167969-25.859374 31.492188-25.859374 8.5-.019532 16.652344 3.351562 22.660156 9.359374zm0 0" fill="#00efd1"/><path d="m221.550781 123.726562c-32.570312-.03125-58.953125-26.453124-58.9375-59.019531.015625-32.570312 26.421875-58.964843 58.992188-58.964843 32.570312 0 58.976562 26.394531 58.992187 58.964843.015625 32.566407-26.367187 58.988281-58.9375 59.019531zm0 0" fill="#00acea"/><path d="m244.320312 380.664062c10.855469 10.816407 12.558594 27.796876 4.0625 40.550782-8.492187 12.753906-24.816406 17.726562-38.980468 11.875-14.164063-5.847656-22.21875-20.894532-19.238282-35.925782 2.984376-15.03125 16.171876-25.859374 31.496094-25.859374 8.5-.023438 16.65625 3.347656 22.660156 9.359374zm0 0" fill="#00efd1"/><path d="m60.671875 380.664062c10.855469 10.816407 12.558594 27.796876 4.0625 40.550782s-24.820313 17.726562-38.984375 11.875c-14.160156-5.847656-22.21875-20.894532-19.234375-35.925782 2.980469-15.03125 16.171875-25.859374 31.496094-25.859374 8.496093-.023438 16.652343 3.347656 22.660156 9.359374zm0 0" fill="#00efd1"/><g fill="#083863"><path d="m194.761719 376.421875c-12.882813 12.839844-14.894531 32.992187-4.808594 48.125 10.085937 15.136719 29.457031 21.035156 46.265625 14.085937 16.808594-6.945312 26.367188-24.800781 22.824219-42.640624-3.542969-17.839844-19.195313-30.6875-37.382813-30.6875-10.089844-.035157-19.777344 3.96875-26.898437 11.117187zm52.921875 26.902344c-.03125 12.375-8.796875 23.007812-20.941406 25.402343-12.144532 2.390626-24.289063-4.128906-29.011719-15.570312-4.71875-11.441406-.707031-24.625 9.589843-31.492188 10.296876-6.871093 24.011719-5.511718 32.761719 3.242188 4.890625 4.878906 7.628907 11.511719 7.597657 18.417969zm0 0"/><path d="m378.40625 376.421875c-12.878906 12.839844-14.894531 32.992187-4.808594 48.125 10.085938 15.136719 29.460938 21.035156 46.269532 14.085937 16.808593-6.945312 26.363281-24.800781 22.824218-42.640624-3.542968-17.839844-19.199218-30.6875-37.382812-30.6875-10.09375-.035157-19.78125 3.96875-26.902344 11.117187zm52.914062 26.902344c-.035156 12.367187-8.800781 22.988281-20.933593 25.375-12.136719 2.386719-24.269531-4.125-28.984375-15.558594-4.71875-11.433594-.707032-24.605469 9.578125-31.472656 10.289062-6.863281 23.992187-5.511719 32.738281 3.234375 4.890625 4.878906 7.628906 11.511718 7.601562 18.421875zm0 0"/><path d="m0 403.324219c.0390625 18.09375 12.851562 33.644531 30.605469 37.140625 17.753906 3.5 35.507812-6.027344 42.40625-22.753906 6.902343-16.722657 1.035156-35.996094-14.019531-46.035157-15.054688-10.039062-35.101563-8.050781-47.890626 4.75-7.117187 7.140625-11.1093745 16.816407-11.101562 26.898438zm19.59375-18.417969c8.769531-8.808594 22.542969-10.191406 32.894531-3.304688 10.347657 6.886719 14.390625 20.125 9.652344 31.621094-4.738281 11.492188-16.9375 18.035156-29.132813 15.628906-12.195312-2.40625-20.992187-13.09375-21.007812-25.527343-.03125-6.90625 2.703125-13.539063 7.59375-18.417969zm0 0"/><path d="m49.902344 278.800781c-1.902344.808594-3.253906 2.535157-3.589844 4.570313l-10.382812 65.222656c-.355469 2.121094.457031 4.273438 2.125 5.632812 1.667968 1.359376 3.9375 1.71875 5.945312.945313 2.007812-.777344 3.445312-2.570313 3.765625-4.695313l9.90625-61.953124 157.988281-67.6875v128.699218c0 3.3125 2.6875 6 6 6s6-2.6875 6-6v-128.792968l157.878906 67.78125 9.832032 61.957031c.523437 3.265625 3.59375 5.492187 6.859375 4.96875 3.269531-.519531 5.492187-3.589844 4.972656-6.855469l-10.382813-65.21875c-.304687-2.027344-1.628906-3.753906-3.507812-4.570312l-165.652344-71.121094v-78.230469c34.453125-3.125 60.367188-32.78125 58.839844-67.34375-1.523438-34.558594-29.945312-61.820313-64.539062-61.898437-34.59375-.082032-63.140626 27.042968-64.828126 61.597656-1.683593 34.554687 24.089844 64.332031 58.527344 67.617187v78.347657zm119.097656-213.734375c.078125-29.070312 23.695312-52.574218 52.761719-52.519531 29.070312.050781 52.597656 23.648437 52.566406 52.714844-.027344 29.066406-23.601563 52.617187-52.667969 52.613281h-.011718c-.035157 0-.066407-.082031-.101563-.082031s-.039063-.03125-.058594-.03125c-29.003906-.15625-52.449219-23.691407-52.488281-52.695313zm0 0"/></g></svg>