<svg height="512" viewBox="0 0 64 64" width="512" xmlns="http://www.w3.org/2000/svg"><g id="Curriculum-2" data-name="Curriculum"><path d="m56 11v48a2.006 2.006 0 0 1 -2 2h-4a2.006 2.006 0 0 0 2-2v-48z" fill="#bcbec0"/><path d="m52 11v48a2.006 2.006 0 0 1 -2 2h-4a2.006 2.006 0 0 0 2-2v-48z" fill="#d1d3d4"/><path d="m48 11v48a2.006 2.006 0 0 1 -2 2h-36a2.006 2.006 0 0 1 -2-2v-48z" fill="#e6e7e8"/><path d="m52 3h4v8h-4z" fill="#1e81ce"/><path d="m48 3h4v8h-4z" fill="#3d9ae2"/><path d="m48 3v8h-4-4-32v-8z" fill="#5aaae7"/><path d="m44 11v8l-2-4-2 4v-8z" fill="#ff5023"/><path d="m28 38v3h-16v-3a6 6 0 0 1 6-6l2 2 2-2a6 6 0 0 1 6 6z" fill="#3d9ae2"/><path d="m22 29.46v2.54l-2 2-2-2v-2.54a3.974 3.974 0 0 0 4 0z" fill="#ffb655"/><path d="m25 22v2h-1.17a2.006 2.006 0 0 1 -1.42-.59l-1.41-1.41-.83.83a4 4 0 0 1 -2.83 1.17h-2.34v-2a5 5 0 0 1 10 0z" fill="#787680"/><path d="m24 24v2a3.994 3.994 0 0 1 -6 3.46 4.225 4.225 0 0 1 -.83-.63 4.025 4.025 0 0 1 -1.17-2.83v-2h1.34a4 4 0 0 0 2.83-1.17l.83-.83 1.41 1.41a2.006 2.006 0 0 0 1.42.59z" fill="#ffc477"/><path d="m56 2h-48a1 1 0 0 0 -1 1v56a3 3 0 0 0 3 3h44a3 3 0 0 0 3-3v-56a1 1 0 0 0 -1-1zm-1 8h-2v-6h2zm-4 0h-2v-6h2zm-4-6v6h-38v-6zm-6 8h2v2.764l-.1-.211a1.042 1.042 0 0 0 -1.79 0l-.1.211zm-31 48a1 1 0 0 1 -1-1v-47h30v7a1 1 0 0 0 1.9.447l1.1-2.211 1.1 2.211a1 1 0 0 0 1.9-.447v-7h2v47a1 1 0 0 1 -1 1zm39 0h-.184a2.966 2.966 0 0 0 .184-1v-47h2v47a1 1 0 0 1 -1 1zm6-1a1 1 0 0 1 -1 1h-1.184a2.966 2.966 0 0 0 .184-1v-47h2z"/><path d="m23 31.071v-1.1a4.977 4.977 0 0 0 2-3.971v-1a1 1 0 0 0 1-1v-2a6 6 0 0 0 -12 0v2a1 1 0 0 0 1 1v1a4.977 4.977 0 0 0 2 3.974v1.1a7.011 7.011 0 0 0 -6 6.926v3a1 1 0 0 0 1 1h16a1 1 0 0 0 1-1v-3a7.011 7.011 0 0 0 -6-6.929zm-7-9.071a4 4 0 0 1 8 0v1h-.171a1 1 0 0 1 -.708-.293l-1.414-1.414a1 1 0 0 0 -1.414 0l-.829.829a3.02 3.02 0 0 1 -2.121.878h-1.343zm1.343 3a4.966 4.966 0 0 0 3.535-1.464l.122-.122.707.707a2.96 2.96 0 0 0 1.293.749v1.13a3 3 0 0 1 -6 0v-1zm2.657 6a5 5 0 0 0 1-.1v.687l-1 1-1-1v-.687a5 5 0 0 0 1 .1zm7 9h-14v-2a4.991 4.991 0 0 1 4.624-4.962l1.669 1.669a1 1 0 0 0 1.414 0l1.669-1.669a4.991 4.991 0 0 1 4.624 4.962z"/><path d="m31 32h2v2h-2z"/><path d="m35 32h10v2h-10z"/><path d="m31 36h14v2h-14z"/><path d="m31 40h6v2h-6z"/><path d="m39 40h6v2h-6z"/><path d="m11 46h4v2h-4z"/><path d="m17 46h10v2h-10z"/><path d="m31 46h14v2h-14z"/><path d="m11 50h8v2h-8z"/><path d="m21 50h2v2h-2z"/><path d="m25 50h2v2h-2z"/><path d="m31 50h8v2h-8z"/><path d="m41 50h4v2h-4z"/><path d="m11 54h16v2h-16z"/><path d="m31 54h14v2h-14z"/></g></svg>