<svg height="480pt" viewBox="0 0 480 480" width="480pt" xmlns="http://www.w3.org/2000/svg"><path d="m112 336h-16v-16c0-.539062.054688-1.074219.160156-1.601562l4.167969-20.863282c.480469-2.351562-.121094-4.796875-1.640625-6.660156-1.519531-1.859375-3.796875-2.941406-6.199219-2.9375h-36.488281v-15.9375h36.488281c7.1875.007812 13.992188 3.234375 18.546875 8.792969 4.554688 5.5625 6.375 12.871093 4.964844 19.917969l-4 20.089843zm0 0" fill="#a8a8a8"/><path d="m96 456h-16v-16c0-.539062.054688-1.074219.160156-1.601562l4.167969-20.863282c.480469-2.351562-.121094-4.796875-1.640625-6.660156-1.519531-1.859375-3.796875-2.941406-6.199219-2.9375h-36.488281v-15.9375h36.488281c7.1875.007812 13.992188 3.234375 18.546875 8.792969 4.554688 5.5625 6.375 12.871093 4.964844 19.917969l-4 20.089843zm0 0" fill="#9c9c9c"/><path d="m384 336h-16v-15.199219l-4-20.089843c-1.410156-7.046876.410156-14.355469 4.964844-19.917969 4.554687-5.558594 11.359375-8.785157 18.546875-8.792969h36.488281v16h-36.488281c-2.402344 0-4.679688 1.078125-6.199219 2.941406-1.519531 1.859375-2.121094 4.304688-1.640625 6.660156l4.167969 20.796876c.105468.527343.160156 1.0625.160156 1.601562zm0 0" fill="#a8a8a8"/><path d="m400 456h-16v-15.199219l-4-20.089843c-1.410156-7.046876.410156-14.355469 4.964844-19.917969 4.554687-5.558594 11.359375-8.785157 18.546875-8.792969h36.488281v16h-36.488281c-2.402344 0-4.679688 1.078125-6.199219 2.941406-1.519531 1.859375-2.121094 4.304688-1.640625 6.660156l4.167969 20.796876c.105468.527343.160156 1.0625.160156 1.601562zm0 0" fill="#9c9c9c"/><path d="m328 312h-16v-35.503906c.003906-3.675782-2.5-6.878906-6.0625-7.769532l-18.921875-4.726562h-94.03125l-18.929687 4.726562c-3.5625.894532-6.058594 4.097657-6.054688 7.769532v27.503906h-16v-27.503906c-.003906-11.011719 7.488281-20.613282 18.167969-23.289063l19.894531-4.96875c.632812-.160156 1.285156-.238281 1.9375-.238281h96c.652344 0 1.304688.078125 1.9375.238281l19.886719 4.96875c10.683593 2.671875 18.179687 12.273438 18.175781 23.289063zm0 0" fill="#787d82"/><path d="m280 240h-80v-32c0-8.835938 7.164062-16 16-16h48c8.835938 0 16 7.164062 16 16zm0 0" fill="#a24a46"/><path d="m136 8h208c4.417969 0 8 3.582031 8 8v136c0 4.417969-3.582031 8-8 8h-208c-4.417969 0-8-3.582031-8-8v-136c0-4.417969 3.582031-8 8-8zm0 0" fill="#d9d9d9"/><path d="m296 296h-112l6.246094-49.984375c1.003906-8.007813 7.8125-14.015625 15.882812-14.015625h67.742188c8.070312 0 14.878906 6.007812 15.882812 14.015625zm0 0" fill="#b6534f"/><path d="m328 320h88v-68c0-11.046875 8.953125-20 20-20s20 8.953125 20 20v100h-120zm0 0" fill="#6f7478"/><path d="m152 320h-88v-68c0-11.046875-8.953125-20-20-20s-20 8.953125-20 20v100h120zm0 0" fill="#6f7478"/><path d="m136 440h-88v-73.183594c0-8.183594-6.632812-14.816406-14.816406-14.816406h-10.398438c-8.171875.019531-14.785156 6.644531-14.785156 14.816406v105.183594h112zm0 0" fill="#606468"/><path d="m208 256h16v16h-16zm0 0" fill="#a24a46"/><path d="m256 256h16v16h-16zm0 0" fill="#a24a46"/><path d="m344 160h-208c-4.417969 0-8-3.582031-8-8v-24h224v24c0 4.417969-3.582031 8-8 8zm0 0" fill="#cdcdcd"/><path d="m216 68c0 15.464844-12.535156 28-28 28s-28-12.535156-28-28 12.535156-28 28-28 28 12.535156 28 28zm0 0" fill="#e06661"/><path d="m240 64h16v40h-16zm0 0" fill="#8dc79d"/><path d="m272 48h16v56h-16zm0 0" fill="#fbb540"/><path d="m304 72h16v32h-16zm0 0" fill="#4799cf"/><path d="m344 440h88v-73.183594c0-8.183594 6.632812-14.816406 14.816406-14.816406h10.398438c8.171875.019531 14.785156 6.644531 14.785156 14.816406v105.183594h-120zm0 0" fill="#606468"/><path d="m368 472h-256l40-176h176zm0 0" fill="#9a826a"/><path d="m207.574219 48c-8.050781-7.875-20.039063-10.15625-30.425781-5.792969-10.382813 4.367188-17.140626 14.527344-17.148438 25.792969h28zm0 0" fill="#8dc79d"/><path d="m207.574219 48-19.574219 20 5.488281 27.449219c10.167969-2.042969 18.378907-9.539063 21.328125-19.484375 2.953125-9.941406.167969-20.703125-7.242187-27.964844zm0 0" fill="#fbb540"/><path d="m464 345.152344v-93.152344c.027344-7.433594-2.914062-14.566406-8.175781-19.816406-8.007813-8.027344-20.066407-10.433594-30.542969-6.09375s-17.296875 14.570312-17.28125 25.910156v20h-20.488281c-7.183594.007812-13.988281 3.234375-18.542969 8.792969-4.554688 5.558593-6.378906 12.863281-4.96875 19.910156l2.238281 11.296875h-26.398437l-4.039063-17.777344c-.828125-3.640625-4.066406-6.222656-7.800781-6.222656v-11.519531c.039062-11.019531-7.460938-20.640625-18.160156-23.289063l-11.488282-2.839844-.664062-5.328124c-.839844-6.535157-4.347656-12.433594-9.6875-16.296876v-20.726562c0-13.253906-10.746094-24-24-24h-48c-13.253906 0-24 10.746094-24 24v20.726562c-5.339844 3.863282-8.847656 9.761719-9.6875 16.296876l-.664062 5.328124-11.488282 2.839844c-10.699218 2.648438-18.199218 12.269532-18.160156 23.289063v11.519531c-3.738281-.003906-6.976562 2.582031-7.808594 6.222656l-4.039062 17.777344h-26.398438l2.253906-11.289062c1.410157-7.046876-.410156-14.359376-4.964843-19.917969-4.558594-5.5625-11.367188-8.789063-18.554688-8.792969h-20.488281v-20c0-15.464844-12.535156-28-28-28s-28 12.535156-28 28v93.152344c-9.488281 2.945312-15.96875 11.710937-16 21.648437v105.199219c0 4.417969 3.582031 8 8 8h464c4.417969 0 8-3.582031 8-8v-105.199219c-.03125-9.9375-6.511719-18.703125-16-21.648437zm-84.328125-47.550782c-.480469-2.355468.121094-4.800781 1.640625-6.660156 1.519531-1.863281 3.796875-2.941406 6.199219-2.941406h20.488281v24h-25.441406zm-3.671875 30.398438h40c4.417969 0 8-3.582031 8-8v-68c0-6.628906 5.371094-12 12-12s12 5.371094 12 12v92h-100.878906l-3.640625-16zm48 38.800781v25.199219h-20.488281c-7.183594.007812-13.988281 3.234375-18.542969 8.792969-4.554688 5.558593-6.378906 12.863281-4.96875 19.910156l2.238281 11.296875h-15.117187l-16.367188-72h74.398438c-.730469 2.195312-1.121094 4.488281-1.152344 6.800781zm-28.328125 50.800781c-.480469-2.355468.121094-4.800781 1.640625-6.660156 1.519531-1.863281 3.796875-2.941406 6.199219-2.941406h20.488281v24h-25.441406zm-89.671875-148.875c3.546875.894532 6.023438 4.097657 6 7.753907v11.519531h-8.9375l-2.582031-20.640625zm-107.816406-21.71875c.5-4.003906 3.90625-7.011718 7.945312-7.007812h67.742188c4.039062-.003906 7.445312 3.003906 7.945312 7.007812l5.121094 40.992188h-93.875zm17.816406-47.007812h48c4.417969 0 8 3.582031 8 8v16h-64v-16c0-4.417969 3.582031-8 8-8zm-48 76.480469c-.023438-3.65625 2.453125-6.859375 6-7.753907l5.519531-1.367187-2.582031 20.640625h-8.9375zm-112 131.519531h20.488281c2.402344 0 4.679688 1.078125 6.199219 2.941406 1.519531 1.859375 2.121094 4.304688 1.640625 6.660156l-2.886719 14.398438h-25.441406zm39.046875-7.199219c-4.542969-5.578125-11.363281-8.8125-18.558594-8.800781h-20.488281v-25.199219c-.03125-2.3125-.421875-4.605469-1.152344-6.800781h74.398438l-16.367188 72h-15.117187l2.253906-11.296875c1.425781-7.042969-.398437-14.355469-4.96875-19.902344zm-2.558594-112.800781c2.402344 0 4.679688 1.078125 6.199219 2.941406 1.519531 1.859375 2.121094 4.304688 1.640625 6.660156l-2.886719 14.398438h-25.441406v-24zm-60.488281-36c0-6.628906 5.371094-12 12-12s12 5.371094 12 12v68c0 4.417969 3.582031 8 8 8h72.519531l-3.640625 16h-100.878906zm-16 114.800781c.003906-3.753906 3.046875-6.796875 6.800781-6.800781h10.398438c3.753906.003906 6.796875 3.046875 6.800781 6.800781v73.199219c0 4.417969 3.582031 8 8 8h61.246094l-3.644532 16h-89.601562zm106.023438 97.199219 36.375-160h163.203124l36.359376 160zm341.976562 0h-89.601562l-3.636719-16h61.238281c4.417969 0 8-3.582031 8-8v-73.199219c.003906-3.753906 3.046875-6.796875 6.800781-6.800781h10.398438c3.753906.003906 6.796875 3.046875 6.800781 6.800781zm0 0"/><path d="m208 256h16v16h-16zm0 0"/><path d="m256 256h16v16h-16zm0 0"/><path d="m128 168h224c4.417969 0 8-3.582031 8-8v-152c0-4.417969-3.582031-8-8-8h-224c-4.417969 0-8 3.582031-8 8v152c0 4.417969 3.582031 8 8 8zm216-16h-208v-16h208zm0-136v104h-208v-104zm0 0"/><path d="m240 64h16v40h-16zm0 0"/><path d="m272 48h16v56h-16zm0 0"/><path d="m304 72h16v32h-16zm0 0"/><path d="m184.617188 32.160156c-19.136719 1.808594-33.476563 18.332032-32.570313 37.535156.902344 19.199219 16.730469 34.300782 35.953125 34.304688 1.128906 0 2.265625-.046875 3.40625-.160156 19.703125-1.976563 34.113281-19.492188 32.253906-39.203125-1.863281-19.714844-19.296875-34.222657-39.019531-32.476563zm1.503906 15.929688c.640625-.089844 1.261718-.089844 1.878906-.089844 2.421875.007812 4.824219.453125 7.089844 1.320312l-10.449219 10.679688h-14.878906c.71875-1.707031 1.671875-3.304688 2.832031-4.753906 3.371094-4.09375 8.242188-6.671875 13.527344-7.15625zm-16.351563 27.910156h11.671875l2.285156 11.40625c-6.199218-1.367188-11.378906-5.601562-13.957031-11.40625zm33.597657 4.753906c-1.167969 1.363282-2.511719 2.5625-4 3.566406l-2.75-13.746093 9.863281-10.007813c.746093 1.773438 1.230469 3.644532 1.429687 5.554688.515625 5.28125-1.105468 10.550781-4.503906 14.632812zm0 0"/></svg>