<?xml version="1.0" encoding="iso-8859-1"?>
<!-- Generator: Adobe Illustrator 19.0.0, SVG Export Plug-In . SVG Version: 6.00 Build 0)  -->
<svg version="1.1" id="Capa_1" xmlns="http://www.w3.org/2000/svg" xmlns:xlink="http://www.w3.org/1999/xlink" x="0px" y="0px"
	 viewBox="0 0 496 496" style="enable-background:new 0 0 496 496;" xml:space="preserve">
<g>
	<rect x="56" y="48" style="fill:#FFCB57;" width="128" height="120"/>
	<rect x="232" y="48" style="fill:#FFCB57;" width="128" height="120"/>
	<rect x="56" y="264" style="fill:#FFCB57;" width="128" height="120"/>
	<rect x="232" y="264" style="fill:#FFCB57;" width="128" height="120"/>
</g>
<g>
	<rect x="64" y="192" style="fill:#E56565;" width="112" height="16"/>
	<rect x="64" y="224" style="fill:#E56565;" width="80" height="16"/>
	<rect x="160" y="224" style="fill:#E56565;" width="16" height="16"/>
	<rect x="240" y="192" style="fill:#E56565;" width="112" height="16"/>
	<rect x="240" y="224" style="fill:#E56565;" width="80" height="16"/>
	<rect x="336" y="224" style="fill:#E56565;" width="16" height="16"/>
</g>
<g>
	<path style="fill:#3F3A34;" d="M496,72V40c0-22.056-17.944-40-40-40h-24v16h24c13.232,0,24,10.768,24,24v32
		c0,13.232-10.768,24-24,24h-24h-16V0H0v496h360c30.88,0,56-25.12,56-56V208h16h24c13.232,0,24,10.768,24,24v32
		c0,13.232-10.768,24-24,24h-24v16h24c13.232,0,24,10.768,24,24v32c0,13.232-10.768,24-24,24h-24v16h24c22.056,0,40-17.944,40-40
		v-32c0-13.128-6.448-24.704-16.248-32c9.8-7.296,16.248-18.872,16.248-32v-32c0-13.128-6.448-24.704-16.248-32
		c9.8-7.296,16.248-18.872,16.248-32v-32c0-13.128-6.448-24.704-16.248-32C489.552,96.704,496,85.128,496,72z M480,136v32
		c0,13.232-10.768,24-24,24h-24h-32v248c0,22.056-17.944,40-40,40H16V16h384v96h32h24C469.232,112,480,122.768,480,136z"/>
	<path style="fill:#3F3A34;" d="M48,176h144V40H48V176z M104,104c0-8.824,7.176-16,16-16s16,7.176,16,16s-7.176,16-16,16
		S104,112.824,104,104z M104,136h32c4.408,0,8,3.592,8,8v16H96v-16C96,139.592,99.592,136,104,136z M64,56h112v104h-16v-16
		c0-9.592-5.696-17.824-13.848-21.664C149.808,117.128,152,110.832,152,104c0-17.648-14.352-32-32-32s-32,14.352-32,32
		c0,6.832,2.192,13.128,5.848,18.336C85.696,126.168,80,134.408,80,144v16H64V56z"/>
	<path style="fill:#3F3A34;" d="M224,176h144V40H224V176z M280,104c0-8.824,7.176-16,16-16s16,7.176,16,16s-7.176,16-16,16
		S280,112.824,280,104z M280,136h32c4.408,0,8,3.592,8,8v16h-48v-16C272,139.592,275.592,136,280,136z M240,56h112v104h-16v-16
		c0-9.592-5.696-17.824-13.848-21.664C325.808,117.128,328,110.832,328,104c0-17.648-14.352-32-32-32s-32,14.352-32,32
		c0,6.832,2.192,13.128,5.848,18.336C261.696,126.168,256,134.408,256,144v16h-16V56z"/>
	<path style="fill:#3F3A34;" d="M48,392h144V256H48V392z M104,320c0-8.824,7.176-16,16-16s16,7.176,16,16s-7.176,16-16,16
		S104,328.824,104,320z M104,352h32c4.408,0,8,3.592,8,8v16H96v-16C96,355.592,99.592,352,104,352z M64,272h112v104h-16v-16
		c0-9.592-5.696-17.824-13.848-21.664C149.808,333.128,152,326.832,152,320c0-17.648-14.352-32-32-32s-32,14.352-32,32
		c0,6.832,2.192,13.128,5.848,18.336C85.696,342.168,80,350.408,80,360v16H64V272z"/>
	<path style="fill:#3F3A34;" d="M224,392h144V256H224V392z M280,320c0-8.824,7.176-16,16-16s16,7.176,16,16s-7.176,16-16,16
		S280,328.824,280,320z M280,352h32c4.408,0,8,3.592,8,8v16h-48v-16C272,355.592,275.592,352,280,352z M240,272h112v104h-16v-16
		c0-9.592-5.696-17.824-13.848-21.664C325.808,333.128,328,326.832,328,320c0-17.648-14.352-32-32-32s-32,14.352-32,32
		c0,6.832,2.192,13.128,5.848,18.336C261.696,342.168,256,350.408,256,360v16h-16V272z"/>
</g>
<g>
	<rect x="64" y="408" style="fill:#E56565;" width="112" height="16"/>
	<rect x="64" y="440" style="fill:#E56565;" width="80" height="16"/>
	<rect x="160" y="440" style="fill:#E56565;" width="16" height="16"/>
	<rect x="240" y="408" style="fill:#E56565;" width="112" height="16"/>
	<rect x="240" y="440" style="fill:#E56565;" width="80" height="16"/>
	<rect x="336" y="440" style="fill:#E56565;" width="16" height="16"/>
</g>
<g>
</g>
<g>
</g>
<g>
</g>
<g>
</g>
<g>
</g>
<g>
</g>
<g>
</g>
<g>
</g>
<g>
</g>
<g>
</g>
<g>
</g>
<g>
</g>
<g>
</g>
<g>
</g>
<g>
</g>
</svg>
