<svg id="survey2" enable-background="new 0 0 300 300" height="512" viewBox="0 0 300 300" width="512" xmlns="http://www.w3.org/2000/svg"><path d="m169.999 54h72v72h-72z" fill="#2ee52b"/><path d="m241.999 142h-80c-4.422 0-8-3.578-8-8v-80c0-4.422 3.578-8 8-8h60c4.422 0 8 3.578 8 8s-3.578 8-8 8h-52v64h64v-16c0-4.422 3.578-8 8-8s8 3.578 8 8v24c0 4.422-3.578 8-8 8z" fill="#5c128d"/><path d="m221.999 166h-60v80h80v-24-56z" fill="#d6d6d6"/><g fill="#5c128d"><path d="m241.999 254h-80c-4.422 0-8-3.578-8-8v-80c0-4.422 3.578-8 8-8h80c4.422 0 8 3.578 8 8v80c0 4.422-3.578 8-8 8zm-72-16h64v-64h-64z"/><path d="m209.999 118c-2.117 0-4.156-.836-5.656-2.344l-16-16c-3.125-3.125-3.125-8.188 0-11.312s8.188-3.125 11.312 0l9.805 9.805 34.391-41.273c2.828-3.391 7.859-3.844 11.273-1.023 3.391 2.828 3.852 7.875 1.023 11.273l-40 48c-1.445 1.727-3.539 2.766-5.789 2.867-.117.007-.242.007-.359.007z"/><path d="m65.999 70h-16c-4.422 0-8-3.578-8-8s3.578-8 8-8h16c4.422 0 8 3.578 8 8s-3.578 8-8 8z"/><path d="m129.999 70h-40c-4.422 0-8-3.578-8-8s3.578-8 8-8h40c4.422 0 8 3.578 8 8s-3.578 8-8 8z"/><path d="m129.999 134h-16c-4.422 0-8-3.578-8-8s3.578-8 8-8h16c4.422 0 8 3.578 8 8s-3.578 8-8 8z"/><path d="m89.999 134h-40c-4.422 0-8-3.578-8-8s3.578-8 8-8h40c4.422 0 8 3.578 8 8s-3.578 8-8 8z"/><path d="m129.999 102h-80c-4.422 0-8-3.578-8-8s3.578-8 8-8h80c4.422 0 8 3.578 8 8s-3.578 8-8 8z"/><path d="m65.999 182h-16c-4.422 0-8-3.578-8-8s3.578-8 8-8h16c4.422 0 8 3.578 8 8s-3.578 8-8 8z"/><path d="m129.999 182h-40c-4.422 0-8-3.578-8-8s3.578-8 8-8h40c4.422 0 8 3.578 8 8s-3.578 8-8 8z"/><path d="m129.999 246h-16c-4.422 0-8-3.578-8-8s3.578-8 8-8h16c4.422 0 8 3.578 8 8s-3.578 8-8 8z"/><path d="m89.999 246h-40c-4.422 0-8-3.578-8-8s3.578-8 8-8h40c4.422 0 8 3.578 8 8s-3.578 8-8 8z"/><path d="m129.999 214h-80c-4.422 0-8-3.578-8-8s3.578-8 8-8h80c4.422 0 8 3.578 8 8s-3.578 8-8 8z"/></g></svg>