<svg height="460pt" viewBox="0 -13 460.18362 460" width="460pt" xmlns="http://www.w3.org/2000/svg"><path d="m300.332031 188.21875h154.273438v57.898438h-154.273438zm0 0" fill="#00efd1"/><path d="m300.332031 368.890625h108.890625v57.898437h-108.890625zm0 0" fill="#00efd1"/><path d="m300.332031 7.550781h108.890625v57.898438h-108.890625zm0 0" fill="#00efd1"/><path d="m245.011719 66.898438c-16.792969.003906-30.40625-13.609376-30.40625-30.402344-.003907-16.792969 13.609375-30.40625 30.40625-30.40625 16.792969 0 30.40625 13.617187 30.402343 30.410156 0 16.789062-13.609374 30.398438-30.402343 30.398438zm0 0" fill="#00acea"/><path d="m245.011719 247.578125c-16.792969.007813-30.414063-13.605469-30.417969-30.402344s13.609375-30.414062 30.40625-30.417969c16.796875 0 30.414062 13.613282 30.414062 30.410157 0 16.792969-13.609374 30.40625-30.402343 30.410156zm0 0" fill="#00acea"/><path d="m245.011719 367.4375c16.792969.003906 30.40625 13.621094 30.402343 30.410156-.003906 16.792969-13.617187 30.402344-30.410156 30.402344-16.792968-.003906-30.402344-13.617188-30.398437-30.410156 0-16.792969 13.613281-30.40625 30.40625-30.402344zm0 0" fill="#00acea"/><path d="m109.753906 163.628906 12.628906-35.140625h7.230469c10.761719.003907 21.019531 4.558594 28.234375 12.542969s10.710938 18.652344 9.625 29.359375v71.367187c0 10.929688-4.417968 21.394532-12.25 29.019532l-6.589844 6.410156c-7.355468 7.15625-11.71875 16.839844-12.210937 27.089844l-5.796875 121.730468h-87.601562l-5.800782-121.648437c-.492187-10.300781-4.894531-20.023437-12.308594-27.191406l-6.589843-6.359375c-7.898438-7.628906-12.359375-18.136719-12.359375-29.121094v-71.296875c-1.085938-10.710937 2.410156-21.375 9.628906-29.363281 7.214844-7.984375 17.476562-12.539063 28.238281-12.539063h8.410157l11.441406 35.140625 8.871094-9.910156-10.121094 94.199219 24.289062 24.292969 24.28125-24.292969-10.058594-93.660157zm0 0" fill="#00acea"/><path d="m85.234375 8.328125h.410156c20.117188 0 36.429688 16.3125 36.429688 36.429687v15.0625c0 20.117188-16.3125 36.429688-36.429688 36.429688h-.410156c-20.121094 0-36.429687-16.3125-36.429687-36.429688v-15.0625c0-20.117187 16.308593-36.429687 36.429687-36.429687zm0 0" fill="#00acea"/><path d="m100.945312 154.257812 10.058594 93.660157-24.28125 24.292969-24.289062-24.292969 10.121094-94.199219 13.597656-15.191406zm0 0" fill="#fedb41"/><g fill="#083863"><path d="m128.183594 44.597656c0-23.433594-18.996094-42.429687-42.429688-42.429687h-.140625c-23.433593 0-42.429687 18.996093-42.429687 42.429687v15.140625c0 23.433594 18.996094 42.429688 42.429687 42.429688h.140625c23.433594 0 42.429688-18.996094 42.429688-42.429688zm-12 15.140625c0 16.808594-13.625 30.429688-30.429688 30.429688h-.140625c-16.804687 0-30.429687-13.621094-30.429687-30.429688v-15.140625c0-16.804687 13.625-30.429687 30.429687-30.429687h.140625c16.804688 0 30.429688 13.625 30.429688 30.429687zm0 0"/><path d="m129.613281 122.167969h-7.230469c-2.558593.070312-4.804687 1.714843-5.644531 4.132812l-9.320312 26.003907-16.894531-17.925782c-1.160157-1.210937-2.769532-1.886718-4.445313-1.871094-1.683594.023438-3.277344.753907-4.398437 2.007813l-15.515626 17.34375-8.214843-25.390625c-.789063-2.503906-3.078125-4.230469-5.699219-4.300781h-8.417969c-12.449219.070312-24.289062 5.40625-32.589843 14.6875-8.175782 9.277343-12.175782 21.511719-11.058594 33.828125v71.003906c-.011719 12.589844 5.066406 24.652344 14.082031 33.4375l6.53125 6.355469c6.316406 6.101562 10.0625 14.390625 10.460937 23.164062l5.785157 121.730469c.140625 3.210938 2.765625 5.753906 5.980469 5.792969h87.601562c3.21875-.035157 5.847656-2.582031 5.992188-5.800781l5.800781-121.765626c.40625-8.742187 4.125-17 10.398437-23.097656l6.449219-6.425781c8.921875-8.789063 13.9375-20.792969 13.917969-33.320313v-71.074218c1.128906-12.3125-2.859375-24.546875-11.023438-33.828125-8.285156-9.277344-20.109375-14.613281-32.546875-14.6875zm-43.351562 25.234375 8.933593 9.5 9.535157 88.800781-18.007813 18.015625-18.015625-18.011719 9.605469-89.425781zm75.101562 22.378906c-.023437.199219-.175781.40625-.175781.609375v71.367187c.027344 9.289063-3.679688 18.199219-10.289062 24.722657l-6.519532 6.40625c-8.449218 8.246093-13.449218 19.394531-13.980468 31.1875l-5.496094 116.09375h-76.15625l-5.53125-116.015625c-.546875-11.839844-5.605469-23.023438-14.132813-31.261719l-6.476562-6.378906c-6.683594-6.527344-10.441407-15.480469-10.421875-24.824219v-71.296875c0-.203125-.121094-.40625-.140625-.609375-.949219-9.039062 1.960937-18.0625 8.015625-24.84375 6.050781-6.777344 14.6875-10.691406 23.773437-10.769531h4.050781l10.101563 30.925781 5.683594-1.925781h.019531l1.609375 1.675781-8.828125 82.316406c-.195312 1.824219.4375 3.636719 1.722656 4.941406l24.289063 24.320313c1.121093 1.132813 2.648437 1.769531 4.238281 1.773437 1.59375.003907 3.121094-.625 4.246094-1.75l24.28125-24.289062c1.285156-1.28125 1.917968-3.074219 1.722656-4.878906l-8.820312-82.371094 1.597656-1.738281h.019531l5.632813 2.101562 11.199218-31.101562h3.011719c9.082031.082031 17.710937 3.996093 23.757813 10.777343 6.042968 6.78125 8.945312 15.800782 7.988281 24.835938zm0 0"/><path d="m281.5 36.5c.003906-19.332031-15.105469-35.296875-34.40625-36.355469-19.304688-1.054687-36.066406 13.164063-38.167969 32.382813-2.105469 19.214844 11.183594 36.726562 30.257813 39.871094v108.863281c-17.558594 2.917969-30.429688 18.109375-30.429688 35.90625 0 17.800781 12.871094 32.988281 30.429688 35.90625v108.867187c-18.644532 3.121094-31.78125 20.011719-30.214844 38.851563 1.566406 18.835937 17.3125 33.328125 36.214844 33.328125s34.648437-14.492188 36.214844-33.328125c1.566406-18.839844-11.570313-35.730469-30.214844-38.851563v-108.867187c17.542968-2.933594 30.398437-18.117188 30.398437-35.90625 0-17.789063-12.855469-32.972657-30.398437-35.90625v-108.867188c17.46875-3.039062 30.242187-18.164062 30.316406-35.894531zm-60.902344 0c0-13.480469 10.921875-24.40625 24.402344-24.410156 13.476562-.003906 24.40625 10.921875 24.410156 24.398437 0 13.480469-10.921875 24.40625-24.402344 24.410157-13.46875-.015626-24.382812-10.929688-24.402343-24.398438zm48.8125 361.339844c0 13.480468-10.925781 24.410156-24.40625 24.410156-13.476562 0-24.40625-10.929688-24.40625-24.40625 0-13.480469 10.929688-24.40625 24.410156-24.40625 13.472657.015625 24.386719 10.929688 24.40625 24.402344zm0-180.671875c-.003906 13.480469-10.933594 24.402343-24.410156 24.402343-13.480469-.003906-24.402344-10.933593-24.402344-24.410156.003906-13.480468 10.933594-24.402344 24.410156-24.402344 13.476563.015626 24.394532 10.9375 24.40625 24.410157zm0 0"/><path d="m415.183594 7.167969c0-3.3125-2.6875-6-6-6h-109c-3.3125 0-6 2.6875-6 6v58c0 3.316406 2.6875 6 6 6h109c3.3125 0 6-2.683594 6-6zm-109 6h97v46h-97zm0 0"/><path d="m460.183594 188.167969c0-3.3125-2.6875-6-6-6h-154c-3.3125 0-6 2.6875-6 6v58c0 3.316406 2.6875 6 6 6h154c3.3125 0 6-2.683594 6-6zm-12 52h-142v-46h142zm0 0"/><path d="m415.183594 369.167969c0-3.3125-2.6875-6-6-6h-109c-3.3125 0-6 2.6875-6 6v58c0 3.316406 2.6875 6 6 6h109c3.3125 0 6-2.683594 6-6zm-12 52h-97v-46h97zm0 0"/></g></svg>