<?xml version="1.0" encoding="iso-8859-1"?>
<!-- Generator: Adobe Illustrator 19.0.0, SVG Export Plug-In . SVG Version: 6.00 Build 0)  -->
<svg version="1.1" id="Capa_1" xmlns="http://www.w3.org/2000/svg" xmlns:xlink="http://www.w3.org/1999/xlink" x="0px" y="0px"
	 viewBox="0 0 512 512" style="enable-background:new 0 0 512 512;" xml:space="preserve">
<g>
	<path style="fill:#5E6875;" d="M216.462,362.624v30.905H107.018c-2.209,0-4-1.791-4-4v-186.15h30.905v157.245c0,1.105,0.895,2,2,2
		H216.462z"/>
	<path style="fill:#5E6875;" d="M293.723,149.376v-30.905h109.444c2.209,0,4,1.791,4,4V302.5h-30.905V151.376c0-1.105-0.895-2-2-2
		H293.723z"/>
</g>
<g>
	<path style="fill:#EF6161;" d="M251.335,381.768l-37.94,27.226c-2.726,1.956-6.523,0.008-6.523-3.348v-54.451
		c0-3.356,3.797-5.304,6.523-3.348l37.94,27.226C253.626,376.716,253.626,380.124,251.335,381.768z"/>
	<path style="fill:#EF6161;" d="M258.851,130.232l37.94-27.226c2.726-1.956,6.523-0.008,6.523,3.348v54.451
		c0,3.356-3.797,5.304-6.523,3.348l-37.94-27.226C256.56,135.284,256.56,131.876,258.851,130.232z"/>
</g>
<path style="fill:#D5E3F5;" d="M216.338,236.942H20.604C9.225,236.942,0,227.717,0,216.338V20.604C0,9.225,9.225,0,20.604,0h195.734
	c11.379,0,20.604,9.225,20.604,20.604v195.734C236.942,227.717,227.717,236.942,216.338,236.942z"/>
<path style="fill:#B1C4DE;" d="M216.338,0h-30.905c11.379,0,20.604,9.225,20.604,20.604v195.734
	c0,11.379-9.225,20.604-20.604,20.604h30.905c11.379,0,20.604-9.225,20.604-20.604V20.604C236.942,9.225,227.717,0,216.338,0z"/>
<path style="fill:#D5E3F5;" d="M491.396,512H295.662c-11.379,0-20.604-9.225-20.604-20.604V295.662
	c0-11.379,9.225-20.604,20.604-20.604h195.734c11.379,0,20.604,9.225,20.604,20.604v195.734C512,502.775,502.775,512,491.396,512z"
	/>
<path style="fill:#B1C4DE;" d="M491.396,275.058h-30.905c11.379,0,20.604,9.225,20.604,20.604v195.734
	c0,11.379-9.225,20.604-20.604,20.604h30.905c11.379,0,20.604-9.225,20.604-20.604V295.662
	C512,284.283,502.775,275.058,491.396,275.058z"/>
<path style="fill:#FFD45E;" d="M115.054,37.333L71.733,101.58c-1.845,2.737,0.116,6.424,3.417,6.424h86.642
	c3.301,0,5.262-3.688,3.417-6.424l-43.321-64.247C120.254,34.911,116.688,34.911,115.054,37.333z"/>
<path style="fill:#3AD1E6;" d="M384.739,387.83l-31.974-31.974c-4.855-4.855-4.855-12.726,0-17.58l31.974-31.974
	c4.855-4.855,12.726-4.855,17.58,0l31.974,31.974c4.855,4.855,4.855,12.726,0,17.58l-31.974,31.974
	C397.465,392.685,389.594,392.685,384.739,387.83z"/>
<g>
	<path style="fill:#5E6875;" d="M51.509,149.067h133.923c4.142,0,7.5-3.357,7.5-7.5s-3.358-7.5-7.5-7.5H51.509
		c-4.142,0-7.5,3.357-7.5,7.5S47.367,149.067,51.509,149.067z"/>
	<path style="fill:#5E6875;" d="M185.433,164.974H51.509c-4.142,0-7.5,3.357-7.5,7.5s3.358,7.5,7.5,7.5h133.923
		c4.142,0,7.5-3.357,7.5-7.5S189.575,164.974,185.433,164.974z"/>
	<path style="fill:#5E6875;" d="M185.433,195.879H51.509c-4.142,0-7.5,3.357-7.5,7.5s3.358,7.5,7.5,7.5h133.923
		c4.142,0,7.5-3.357,7.5-7.5S189.575,195.879,185.433,195.879z"/>
	<path style="fill:#5E6875;" d="M326.567,424.724h133.924c4.143,0,7.5-3.357,7.5-7.5s-3.357-7.5-7.5-7.5H326.567
		c-4.143,0-7.5,3.357-7.5,7.5S322.425,424.724,326.567,424.724z"/>
	<path style="fill:#5E6875;" d="M460.491,440.629H326.567c-4.143,0-7.5,3.357-7.5,7.5s3.357,7.5,7.5,7.5h133.924
		c4.143,0,7.5-3.357,7.5-7.5S464.634,440.629,460.491,440.629z"/>
	<path style="fill:#5E6875;" d="M460.491,471.534H326.567c-4.143,0-7.5,3.357-7.5,7.5s3.357,7.5,7.5,7.5h133.924
		c4.143,0,7.5-3.357,7.5-7.5S464.634,471.534,460.491,471.534z"/>
</g>
<g>
</g>
<g>
</g>
<g>
</g>
<g>
</g>
<g>
</g>
<g>
</g>
<g>
</g>
<g>
</g>
<g>
</g>
<g>
</g>
<g>
</g>
<g>
</g>
<g>
</g>
<g>
</g>
<g>
</g>
</svg>
