<svg height="512pt" viewBox="-38 0 512 512" width="512pt" xmlns="http://www.w3.org/2000/svg"><path d="m387.5 97.496094h-220c-22.089844 0-40 17.90625-40 40v327.003906c0 22.089844 17.910156 40 40 40h220c22.089844 0 40-17.910156 40-40v-327.003906c0-22.09375-17.910156-40-40-40zm0 0" fill="#ce795f"/><path d="m397.5 98.757812v38.738282l-230 337.003906h-38.738281c4.4375 17.253906 20.097656 30 38.738281 30h220c22.089844 0 40-17.90625 40-40v-327.003906c0-18.640625-12.746094-34.300782-30-38.738282zm0 0" fill="#a05a4b"/><path d="m375 474.5h-195c-12.425781 0-22.5-10.074219-22.5-22.5v-302.003906c0-12.425782 10.074219-22.5 22.5-22.5h195c12.425781 0 22.5 10.074218 22.5 22.5v302.003906c0 12.425781-10.074219 22.5-22.5 22.5zm0 0" fill="#fff9eb"/><path d="m375 127.496094h-7.5v294.503906c0 12.425781-10.074219 22.5-22.5 22.5h-187.5v7.5c0 12.425781 10.074219 22.5 22.5 22.5h195c12.425781 0 22.5-10.074219 22.5-22.5v-302.003906c0-12.425782-10.074219-22.5-22.5-22.5zm0 0" fill="#e9e3d5"/><path d="m320.179688 77.59375c-5.632813-.375-18.988282.386719-21.792969-.566406-3.421875-1.164063-5.886719-4.394532-5.886719-8.210938 0-3.109375 1.425781-6.03125 3.84375-7.988281 6.382812-5.152344 10.582031-12.917969 11.097656-21.5.003906-.023437.007813-.046875.007813-.070313.996093-17.222656-12.6875-31.757812-29.949219-31.757812-16.566406 0-30 13.425781-30 29.996094 0 9.429687 4.351562 17.832031 11.15625 23.332031 2.414062 1.953125 3.84375 4.875 3.84375 7.984375 0 .273438-.03125.660156-.03125.660156-.339844 4.484375-4.078125 8.019532-8.648438 8.019532h-16.320312c-22.132812 0-40 17.976562-40 40 .074219 13.785156 11.488281 25 25.324219 25h109.675781c13.808594 0 25-11.191407 25-25 0-21.023438-16.339844-38.515626-37.320312-39.898438zm0 0" fill="#8b9ba9"/><path d="m327.5 78.769531v11.226563c0 12.425781-10.074219 22.5-22.5 22.5h-107.175781c-.207031 1.640625-.324219 3.304687-.324219 5 .074219 13.785156 11.488281 25 25.324219 25h109.523437c13.800782 0 25.183594-11.292969 25.152344-25.097656-.042969-18.464844-12.691406-34.179688-30-38.628907zm0 0" fill="#6c7a88"/><path d="m71.25 446.746094c-14.976562 0-26.25-21.988282-26.25-36.25v-213c0-14.472656 11.773438-26.25 26.25-26.25s26.25 11.777344 26.25 26.25v213c0 14.261718-11.273438 36.25-26.25 36.25zm0 0" fill="#6697cc"/><path d="m71.25 171.246094c-1.273438 0-2.523438.097656-3.75.273437v225.230469c0 11.046875-8.953125 19.996094-20 19.996094h-1.871094c2.550782 13.648437 12.707032 30 25.621094 30 14.976562 0 26.25-21.988282 26.25-36.25v-213c0-14.472656-11.773438-26.25-26.25-26.25zm0 0" fill="#336499"/><path d="m337.746094 384.5c0 33.136719-26.863282 60-60 60-33.136719 0-60-26.863281-60-60s26.863281-60 60-60c33.136718 0 60 26.863281 60 60zm0 0" fill="#ff7c8c"/><path d="m308.21875 332.816406c5.273438 8.933594 8.316406 19.34375 8.316406 30.46875 0 33.140625-26.863281 60-60 60-11.128906 0-21.539062-3.039062-30.472656-8.316406 10.441406 17.671875 29.671875 29.53125 51.683594 29.53125 33.136718 0 60-26.863281 60-60 0-22.011719-11.859375-41.242188-29.527344-51.683594zm0 0" fill="#ff5368"/><path d="m277.746094 292.496094c-33.082032 0-60-26.917969-60-60 0-33.085938 26.917968-60 60-60 33.085937 0 60 26.914062 60 60 0 33.082031-26.914063 60-60 60zm0 0" fill="#c4ea73"/><path d="m308.199219 180.828125c5.285156 8.933594 8.332031 19.34375 8.332031 30.453125 0 33.085938-26.914062 60-60 60-11.109375 0-21.519531-3.046875-30.453125-8.332031 10.453125 17.667969 29.695313 29.546875 51.667969 29.546875 33.082031 0 60-26.917969 60-60 0-21.972656-11.878906-41.214844-29.546875-51.667969zm0 0" fill="#92c52c"/><path d="m285 37.496094c0 4.140625-3.359375 7.5-7.5 7.5s-7.5-3.359375-7.5-7.5c0-4.144532 3.359375-7.5 7.5-7.5s7.5 3.355468 7.5 7.5zm0 0"/><path d="m387.5 89.996094c-4.144531 0-7.5 3.355468-7.5 7.5 0 4.140625 3.355469 7.5 7.5 7.5 17.921875 0 32.5 14.578125 32.5 32.5v327.003906c0 17.921875-14.578125 32.5-32.5 32.5h-220c-17.921875 0-32.5-14.578125-32.5-32.5v-327.003906c0-17.921875 14.578125-32.5 32.5-32.5h24.179688c-1.085938 3.984375-1.679688 8.171875-1.679688 12.5 0 .839844.042969 1.671875.105469 2.5h-10.105469c-16.542969 0-30 13.457031-30 30v302.003906c0 16.542969 13.457031 30 30 30h195c16.542969 0 30-13.457031 30-30v-302.003906c0-16.542969-13.457031-30-30-30h-10.105469c.0625-.828125.105469-1.660156.105469-2.5 0-26.191406-21.308594-47.5-47.5-47.5h-16.320312c-.648438 0-1.179688-.53125-1.179688-1.183594 0-.824219.386719-1.609375 1.058594-2.152344 8.859375-7.160156 13.941406-17.789062 13.941406-29.164062 0-20.675782-16.820312-37.496094-37.5-37.496094s-37.5 16.820312-37.5 37.496094c0 11.375 5.082031 22.003906 13.9375 29.164062.675781.542969 1.0625 1.328125 1.0625 2.152344 0 .652344-.527344 1.183594-1.179688 1.183594h-16.320312c-15.945312 0-30.074219 7.90625-38.691406 20h-31.308594c-26.191406 0-47.5 21.308594-47.5 47.5v327.003906c0 26.191406 21.308594 47.5 47.5 47.5h220c26.191406 0 47.5-21.308594 47.5-47.5v-327.003906c0-26.191406-21.308594-47.5-47.5-47.5zm-150-5h16.320312c8.921876 0 16.179688-7.261719 16.179688-16.183594 0-5.371094-2.414062-10.410156-6.632812-13.816406-5.316407-4.300782-8.367188-10.679688-8.367188-17.5 0-12.40625 10.09375-22.496094 22.5-22.496094s22.5 10.089844 22.5 22.496094c0 6.820312-3.050781 13.199218-8.371094 17.5-4.214844 3.40625-6.628906 8.445312-6.628906 13.816406 0 8.921875 7.257812 16.183594 16.179688 16.183594h16.320312c17.921875 0 32.5 14.578125 32.5 32.5 0 9.648437-7.851562 17.5-17.5 17.5h-110c-9.648438 0-17.5-7.851563-17.5-17.5 0-17.921875 14.578125-32.5 32.5-32.5zm-15 65h110c11.480469 0 21.582031-5.988282 27.363281-15h15.136719c8.269531 0 15 6.726562 15 15v302.003906c0 8.269531-6.730469 15-15 15h-195c-8.269531 0-15-6.730469-15-15v-302.003906c0-8.273438 6.730469-15 15-15h15.136719c5.78125 9.011718 15.882812 15 27.363281 15zm0 0"/><path d="m78.75 164.597656v-15.851562c4.144531 0 7.5-3.355469 7.5-7.5 0-4.140625-3.355469-7.5-7.5-7.5h-7.5c-35.152344 0-63.75 28.601562-63.75 63.75v65.5c-4.144531 0-7.5 3.355468-7.5 7.5 0 4.144531 3.355469 7.5 7.5 7.5h7.5c4.144531 0 7.5-3.355469 7.5-7.5v-73c0-24.328125 17.917969-44.550782 41.25-48.171875v15.273437c-15.011719 3.421875-26.25 16.871094-26.25 32.898438v213c0 15.167968 10.210938 37.09375 26.25 42.5v8.25c0 4.144531 3.355469 7.5 7.5 7.5s7.5-3.355469 7.5-7.5v-8.25c16.039062-5.40625 26.25-27.332032 26.25-42.5v-213c0-16.027344-11.238281-29.476563-26.25-32.898438zm11.25 245.898438c0 11.875-9.695312 28.75-18.75 28.75s-18.75-16.875-18.75-28.75v-213c0-10.335938 8.410156-18.75 18.75-18.75s18.75 8.414062 18.75 18.75zm0 0"/><path d="m277.746094 299.996094c37.222656 0 67.5-30.28125 67.5-67.5 0-37.222656-30.277344-67.5-67.5-67.5-37.21875 0-67.5 30.277344-67.5 67.5 0 37.21875 30.28125 67.5 67.5 67.5zm0-120c28.949218 0 52.5 23.550781 52.5 52.5 0 28.949218-23.550782 52.5-52.5 52.5-28.945313 0-52.5-23.550782-52.5-52.5 0-28.949219 23.554687-52.5 52.5-52.5zm0 0"/><path d="m277.746094 452c37.222656 0 67.5-30.28125 67.5-67.5s-30.277344-67.5-67.5-67.5c-37.21875 0-67.5 30.28125-67.5 67.5s30.28125 67.5 67.5 67.5zm0-120c28.949218 0 52.5 23.550781 52.5 52.5s-23.550782 52.5-52.5 52.5c-28.945313 0-52.5-23.550781-52.5-52.5s23.554687-52.5 52.5-52.5zm0 0"/><path d="m262.550781 224.78125v-3c0-4.636719-3.761719-8.394531-8.398437-8.394531-4.636719 0-8.398438 3.757812-8.398438 8.394531v3c0 4.640625 3.761719 8.398438 8.398438 8.398438 4.636718 0 8.398437-3.757813 8.398437-8.398438zm0 0"/><path d="m301.34375 213.386719c-4.640625 0-8.398438 3.757812-8.398438 8.394531v3c0 4.640625 3.757813 8.398438 8.398438 8.398438 4.636719 0 8.394531-3.757813 8.394531-8.398438v-3c0-4.636719-3.757812-8.394531-8.394531-8.394531zm0 0"/><path d="m288.351562 252.210938c-2.832031 2.832031-6.597656 4.394531-10.605468 4.394531-4.007813 0-7.773438-1.5625-10.605469-4.394531-2.929687-2.929688-7.679687-2.929688-10.609375 0-2.929688 2.929687-2.925781 7.679687 0 10.605468 5.667969 5.667969 13.203125 8.789063 21.214844 8.789063 8.011718 0 15.542968-3.121094 21.210937-8.789063 2.929688-2.925781 2.929688-7.675781 0-10.605468-2.925781-2.929688-7.675781-2.925782-10.605469 0zm0 0"/><path d="m262.550781 376.789062v-3c0-4.640624-3.761719-8.398437-8.398437-8.398437-4.636719 0-8.398438 3.757813-8.398438 8.398437v3c0 4.636719 3.761719 8.398438 8.398438 8.398438 4.636718 0 8.398437-3.761719 8.398437-8.398438zm0 0"/><path d="m301.34375 365.390625c-4.640625 0-8.398438 3.757813-8.398438 8.398437v3c0 4.636719 3.757813 8.398438 8.398438 8.398438 4.636719 0 8.394531-3.761719 8.394531-8.398438v-3c0-4.640624-3.757812-8.398437-8.394531-8.398437zm0 0"/><path d="m267.140625 421.414062c2.832031-2.832031 6.601563-4.394531 10.605469-4.394531 4.007812 0 7.773437 1.5625 10.609375 4.394531 2.929687 2.929688 7.675781 2.929688 10.605469 0 2.929687-2.929687 2.929687-7.679687 0-10.605468-5.667969-5.667969-13.199219-8.789063-21.214844-8.789063-8.011719 0-15.542969 3.121094-21.210938 8.789063-2.929687 2.925781-2.929687 7.675781 0 10.605468 2.925782 2.929688 7.675782 2.929688 10.605469 0zm0 0"/></svg>