<svg height="512pt" viewBox="0 0 512 512" width="512pt" xmlns="http://www.w3.org/2000/svg"><path d="m231.957031 392.25c0 61.96875-50.238281 112.203125-112.207031 112.203125s-112.207031-50.234375-112.207031-112.203125 50.238281-112.207031 112.207031-112.207031 112.207031 50.238281 112.207031 112.207031zm0 0" fill="#cdd2e1"/><path d="m119.75 280.042969c-4.0625 0-8.070312.242187-12.023438.664062 56.3125 6.003907 100.183594 53.636719 100.183594 111.542969 0 57.902344-43.871094 105.539062-100.183594 111.542969 3.953126.421875 7.960938.660156 12.023438.660156 61.96875 0 112.207031-50.234375 112.207031-112.203125s-50.238281-112.207031-112.207031-112.207031zm0 0" fill="#9196aa"/><path d="m504.453125 392.25c0 61.96875-50.234375 112.203125-112.203125 112.203125s-112.207031-50.234375-112.207031-112.203125 50.238281-112.207031 112.207031-112.207031 112.203125 50.238281 112.203125 112.207031zm0 0" fill="#cdd2e1"/><path d="m392.25 280.042969c-4.066406 0-8.070312.242187-12.023438.664062 56.3125 6.003907 100.183594 53.636719 100.183594 111.542969 0 57.902344-43.871094 105.539062-100.183594 111.539062 3.953126.421876 7.957032.664063 12.023438.664063 61.96875 0 112.203125-50.234375 112.203125-112.203125 0-61.972656-50.234375-112.207031-112.203125-112.207031zm0 0" fill="#9196aa"/><path d="m384.234375 135.78125c0 70.820312-57.414063 128.234375-128.234375 128.234375-70.824219 0-128.234375-57.414063-128.234375-128.234375 0-70.824219 57.410156-128.234375 128.234375-128.234375 70.820312 0 128.234375 57.410156 128.234375 128.234375zm0 0" fill="#cdd2e1"/><path d="m256 7.546875c-4.058594 0-8.058594.238281-12.023438.605469 65.179688 6.066406 116.214844 60.863281 116.214844 127.628906 0 66.761719-51.035156 121.558594-116.214844 127.625 3.964844.371094 7.964844.609375 12.023438.609375 70.820312 0 128.234375-57.414063 128.234375-128.234375 0-70.824219-57.414063-128.234375-128.234375-128.234375zm0 0" fill="#9196aa"/><path d="m175.851562 432.324219s0 32.058593-24.042968 32.058593c-24.042969 0-40.074219 0-64.117188 0-24.042968 0-24.042968-32.058593-24.042968-32.058593 0-21.722657 12.261718-40.476563 30.296874-49.851563l25.804688 25.804688 25.808594-25.804688c18.03125 9.375 30.292968 28.128906 30.292968 49.851563zm0 0" fill="#ff636e"/><path d="m119.75 376.21875c9.296875 0 18.113281 2.246094 25.808594 6.253906l-25.808594 25.804688-25.808594-25.804688c7.695313-4.007812 16.511719-6.253906 25.808594-6.253906zm0 0" fill="#f2f6fc"/><path d="m119.75 312.101562c17.710938 0 32.058594 14.347657 32.058594 32.058594 0 17.714844-14.347656 32.058594-32.058594 32.058594-17.714844 0-32.058594-14.34375-32.058594-32.058594 0-17.710937 14.347656-32.058594 32.058594-32.058594zm0 0" fill="#ffbeaa"/><path d="m159.363281 392.710938c-4.058593-4.054688-8.660156-7.5625-13.804687-10.238282l-25.808594 25.804688-25.761719-25.761719-.140625.011719c-5.105468 2.667968-9.679687 6.15625-13.710937 10.183594l39.613281 39.613281zm0 0" fill="#f03049"/><path d="m448.351562 432.324219s0 32.058593-24.042968 32.058593c-24.042969 0-40.074219 0-64.117188 0-24.042968 0-24.042968-32.058593-24.042968-32.058593 0-21.722657 12.261718-40.476563 30.292968-49.851563l25.808594 25.804688 25.804688-25.804688c18.035156 9.375 30.296874 28.128906 30.296874 49.851563zm0 0" fill="#ffee6e"/><path d="m392.25 376.21875c9.296875 0 18.113281 2.246094 25.804688 6.253906l-25.804688 25.804688-25.808594-25.804688c7.695313-4.007812 16.511719-6.253906 25.808594-6.253906zm0 0" fill="#f2f6fc"/><path d="m392.25 312.101562c17.710938 0 32.058594 14.347657 32.058594 32.058594 0 17.714844-14.347656 32.058594-32.058594 32.058594-17.714844 0-32.058594-14.34375-32.058594-32.058594 0-17.710937 14.347656-32.058594 32.058594-32.058594zm0 0" fill="#ffbeaa"/><path d="m431.859375 392.710938c-4.054687-4.054688-8.65625-7.5625-13.804687-10.238282l-25.804688 25.804688-25.761719-25.761719-.140625.011719c-5.109375 2.667968-9.679687 6.15625-13.710937 10.183594l39.609375 39.613281zm0 0" fill="#ffbc36"/><path d="m312.101562 175.851562s0 32.058594-24.042968 32.058594c-24.042969 0-40.074219 0-64.117188 0-24.042968 0-24.042968-32.058594-24.042968-32.058594 0-21.71875 12.261718-40.472656 30.292968-49.847656l25.808594 25.804688 25.808594-25.804688c18.03125 9.375 30.292968 28.128906 30.292968 49.847656zm0 0" fill="#cbf7f7"/><path d="m256 119.75c9.296875 0 18.113281 2.246094 25.808594 6.253906l-25.808594 25.804688-25.808594-25.804688c7.695313-4.007812 16.511719-6.253906 25.808594-6.253906zm0 0" fill="#f2f6fc"/><path d="m256 55.632812c17.710938 0 32.058594 14.34375 32.058594 32.058594 0 17.710938-14.347656 32.058594-32.058594 32.058594-17.714844 0-32.058594-14.347656-32.058594-32.058594 0-17.714844 14.347656-32.058594 32.058594-32.058594zm0 0" fill="#ffbeaa"/><path d="m295.609375 136.242188c-4.054687-4.054688-8.65625-7.5625-13.800781-10.238282l-25.808594 25.804688-25.761719-25.761719-.140625.011719c-5.105468 2.667968-9.679687 6.15625-13.710937 10.183594l39.613281 39.609374zm0 0" fill="#64e1dc"/><g fill="#fff"><path d="m31.589844 384.703125h16.027344v15.089844h-16.027344zm0 0"/><path d="m191.882812 384.703125h16.027344v15.089844h-16.027344zm0 0"/><path d="m304.089844 384.703125h16.027344v15.089844h-16.027344zm0 0"/><path d="m464.382812 384.703125h16.027344v15.089844h-16.027344zm0 0"/></g><path d="m192.351562 175.851562c0 13.699219 6.601563 39.605469 31.589844 39.605469h64.117188c24.988281 0 31.589844-25.90625 31.589844-39.605469 0-25.90625-15.574219-48.238281-37.839844-58.15625 8.4375-7.269531 13.792968-18.019531 13.792968-30.003906 0-21.835937-17.765624-39.605468-39.601562-39.605468-21.839844 0-39.605469 17.769531-39.605469 39.605468 0 11.984375 5.359375 22.734375 13.796875 30.003906-22.269531 9.917969-37.839844 32.246094-37.839844 58.15625zm63.648438-48.554687c4.238281 0 8.347656.546875 12.269531 1.574219l-12.269531 12.269531-12.269531-12.269531c3.921875-1.027344 8.03125-1.574219 12.269531-1.574219zm-24.515625-39.605469c0-13.515625 11-24.515625 24.515625-24.515625s24.511719 11 24.511719 24.515625-10.996094 24.511719-24.511719 24.511719-24.515625-10.992187-24.515625-24.511719zm-2.460937 47.8125 26.976562 26.976563 26.976562-26.980469c13.003907 8.722656 21.582032 23.546875 21.582032 40.332031 0 .070313-.070313 7.058594-2.640625 13.699219-3.753907 9.710938-9.710938 10.835938-13.859375 10.835938h-64.117188c-4.152344 0-10.105468-1.125-13.859375-10.835938-2.570312-6.640625-2.640625-13.628906-2.640625-13.679688 0-16.796874 8.578125-31.628906 21.582032-40.347656zm0 0" fill="#231f20"/><path d="m56.101562 432.324219c0 13.695312 6.601563 39.601562 31.589844 39.601562h64.117188c24.988281 0 31.589844-25.902343 31.589844-39.601562 0-25.910157-15.570313-48.238281-37.839844-58.160157 8.4375-7.269531 13.796875-18.019531 13.796875-30.003906 0-21.835937-17.769531-39.601562-39.605469-39.601562s-39.605469 17.765625-39.605469 39.601562c0 11.984375 5.359375 22.734375 13.796875 30-22.269531 9.925782-37.839844 32.253906-37.839844 58.164063zm63.648438-48.558594c4.238281 0 8.347656.550781 12.269531 1.574219l-12.269531 12.269531-12.269531-12.269531c3.921875-1.027344 8.03125-1.574219 12.269531-1.574219zm-24.511719-39.605469c0-13.515625 10.996094-24.511718 24.511719-24.511718s24.511719 10.996093 24.511719 24.511718c0 13.519532-10.996094 24.515625-24.511719 24.515625s-24.511719-10.996093-24.511719-24.515625zm-2.464843 47.8125 26.976562 26.976563 26.976562-26.976563c13.003907 8.71875 21.582032 23.542969 21.582032 40.328125 0 .070313-.070313 7.0625-2.640625 13.703125-3.753907 9.710938-9.707031 10.835938-13.859375 10.835938h-64.117188c-4.152344 0-10.105468-1.125-13.859375-10.835938-2.570312-6.640625-2.640625-13.632812-2.640625-13.679687 0-16.800781 8.578125-31.632813 21.582032-40.351563zm0 0" fill="#231f20"/><path d="m328.601562 432.324219c0 13.695312 6.601563 39.601562 31.589844 39.601562h64.117188c24.988281 0 31.589844-25.902343 31.589844-39.601562 0-25.910157-15.574219-48.238281-37.839844-58.160157 8.4375-7.269531 13.792968-18.019531 13.792968-30.003906 0-21.835937-17.765624-39.601562-39.601562-39.601562-21.839844 0-39.605469 17.765625-39.605469 39.601562 0 11.984375 5.359375 22.734375 13.796875 30.003906-22.269531 9.921876-37.839844 32.25-37.839844 58.160157zm63.648438-48.558594c4.238281 0 8.347656.550781 12.269531 1.574219l-12.269531 12.269531-12.269531-12.269531c3.917969-1.027344 8.03125-1.574219 12.269531-1.574219zm-24.515625-39.605469c0-13.515625 10.996094-24.511718 24.515625-24.511718 13.515625 0 24.511719 10.996093 24.511719 24.511718 0 13.519532-10.996094 24.515625-24.511719 24.515625-13.519531 0-24.515625-10.996093-24.515625-24.515625zm-2.460937 47.8125 26.976562 26.976563 26.976562-26.980469c13.003907 8.722656 21.578126 23.546875 21.578126 40.332031 0 .070313-.070313 7.0625-2.636719 13.699219-3.753907 9.714844-9.710938 10.835938-13.859375 10.835938h-64.117188c-4.152344 0-10.105468-1.121094-13.859375-10.835938-2.570312-6.636719-2.640625-13.628906-2.640625-13.675781 0-16.800781 8.578125-31.628907 21.582032-40.351563zm0 0" fill="#231f20"/><path d="m392.25 272.5c-35.464844 0-67.367188 15.5-89.3125 40.074219h-39.394531v-41.226563c71.375-3.929687 128.234375-63.230468 128.234375-135.566406.003906-74.871094-60.910156-135.78125-135.777344-135.78125-30.769531 0-60.910156 10.578125-84.867188 29.785156l9.4375 11.773438c21.601563-17.316406 47.683594-26.46875 75.429688-26.46875 66.546875 0 120.6875 54.140625 120.6875 120.691406 0 66.546875-54.140625 120.6875-120.6875 120.6875-66.550781 0-120.691406-54.140625-120.691406-120.6875 0-29.4375 10.714844-57.785156 30.171875-79.828125l-11.316407-9.988281c-21.890624 24.800781-33.945312 56.699218-33.945312 89.8125 0 72.335937 56.863281 131.640625 128.234375 135.566406v41.226562h-39.390625c-21.945312-24.574218-53.851562-40.074218-89.3125-40.074218-24.636719 0-48.300781 7.425781-68.433594 21.46875l8.632813 12.378906c17.589843-12.269531 38.269531-18.757812 59.800781-18.757812 57.710938 0 104.660156 46.953124 104.660156 104.664062 0 57.707031-46.949218 104.660156-104.660156 104.660156s-104.660156-46.949218-104.660156-104.660156c0-27.558594 10.621094-53.570312 29.902344-73.246094l-10.777344-10.5625c-22.0625 22.515625-34.214844 52.277344-34.214844 83.808594 0 66.03125 53.71875 119.75 119.75 119.75s119.75-53.71875 119.75-119.75c0-23.769531-6.960938-45.941406-18.949219-64.589844h70.898438c-11.988281 18.648438-18.949219 40.820313-18.949219 64.589844 0 66.03125 53.71875 119.75 119.75 119.75 31.527344 0 61.289062-12.152344 83.804688-34.214844l-10.558594-10.777344c-19.679688 19.28125-45.691406 29.902344-73.246094 29.902344-57.710938 0-104.660156-46.949218-104.660156-104.660156s46.949218-104.660156 104.660156-104.660156c57.707031 0 104.660156 46.949218 104.660156 104.660156 0 21.53125-6.484375 42.210938-18.757812 59.800781l12.378906 8.632813c14.042969-20.136719 21.46875-43.800782 21.46875-68.433594 0-66.03125-53.71875-119.75-119.75-119.75zm0 0" fill="#231f20"/><path d="m151.808594 128.234375h16.03125v15.089844h-16.03125zm0 0" fill="#fff"/><path d="m344.160156 128.234375h16.03125v15.089844h-16.03125zm0 0" fill="#fff"/></svg>