<svg height="474pt" viewBox="0 -42 474.323 474" width="474pt" xmlns="http://www.w3.org/2000/svg"><path d="m433.738281 115.03125c9.726563 0 18.996094 4.121094 25.515625 11.332031 6.523438 7.214844 9.683594 16.851563 8.707032 26.527344v64.492187c-.003907 9.875-4 19.332032-11.082032 26.21875l-5.957031 5.800782c-6.644531 6.464844-10.585937 15.210937-11.03125 24.46875l-5.242187 110h-79.160157l-5.238281-109.917969c-.441406-9.308594-4.417969-18.097656-11.121094-24.570313l-5.957031-5.75c-7.132813-6.898437-11.160156-16.390624-11.160156-26.3125v-64.429687c-.984375-9.675781 2.179687-19.3125 8.699219-26.53125 6.523437-7.214844 15.792968-11.328125 25.519531-11.328125h7.597656l10.332031 31.75h.011719l8.007813-8.941406-9.140626 85.113281 21.941407 21.9375 21.949219-21.9375-9.101563-84.640625 7.972656 8.46875 11.410157-31.75zm0 0" fill="#fedb41"/><path d="m393.640625 6.453125h.371094c18.179687 0 32.917969 14.738281 32.917969 32.917969v13.609375c0 18.183593-14.738282 32.921875-32.917969 32.921875h-.371094c-18.183594 0-32.921875-14.738282-32.921875-32.921875v-13.609375c0-18.179688 14.738281-32.917969 32.921875-32.917969zm0 0" fill="#fedb41"/><path d="m407.828125 138.3125 9.101563 84.640625-21.949219 21.9375-21.941407-21.9375 9.140626-85.113281 12.289062-13.738282zm0 0" fill="#00efd1"/><path d="m120.878906 198.8125c9.96875 0 19.46875 4.21875 26.148438 11.613281 6.683594 7.394531 9.925781 17.269531 8.921875 27.1875v56.476563h-149.578125v-56.476563c-1.003906-9.917969 2.234375-19.796875 8.917968-27.1875 6.683594-7.394531 16.183594-11.613281 26.152344-11.613281h26.886719v.039062l4.78125 19.660157h-.519531l-7.019532 44.550781v.007812l15.589844 15 16.578125-15-8.066406-44.546874-16.5625-.011719h16.089844l4.789062-19.660157v-.039062zm0 0" fill="#00acea"/><path d="m113.898438 123.8125v26.210938c0 18.738281-15.191407 33.929687-33.929688 33.929687s-33.929688-15.191406-33.929688-33.929687v-25.652344c13.441407 2.242187 22.269532-4.589844 27.632813-12.410156h.007813c7.101562 10.410156 19.761718 20.628906 40.21875 11.851562zm0 0" fill="#f7caa5"/><path d="m113.898438 116.230469v7.582031c-20.457032 8.777344-33.117188-1.441406-40.21875-11.851562-3.273438-4.84375-5.8125-10.144532-7.539063-15.730469h27.757813c11.046874.003906 19.996093 8.957031 20 20zm0 0" fill="#4b5d63"/><path d="m89.671875 218.523438 8.066406 44.546874-16.578125 15-15.589844-15v-.007812l7.019532-44.550781h.519531zm0 0" fill="#00efd1"/><path d="m73.679688 111.960938h-.007813c-5.363281 7.820312-14.191406 14.652343-27.632813 12.410156v-8.140625c.003907-11.042969 8.957032-19.996094 20-20h.101563c1.726563 5.585937 4.265625 10.886719 7.539063 15.730469zm0 0" fill="#4b5d63"/><g fill="#083863"><path d="m185.304688 158.25c.09375.78125.339843 1.539062.726562 2.226562 0 .007813.035156.015626.039062.019532.082032.15625.1875.308594.285157.457031.011719.015625.027343.035156.035156.050781.101563.152344.21875.296875.335937.445313l.019532.023437c.125.152344.257812.300782.394531.4375l26.511719 26.507813c2.34375 2.34375 6.140625 2.34375 8.484375 0s2.34375-6.140625 0-8.484375l-16.230469-16.082032 77.011719.308594h.011719c3.335937-.070312 6.003906-2.796875 6-6.136718.011718-3.328126-2.660157-6.042969-5.988282-6.085938l-77.097656-.199219 16.296875-16.316406c2.347656-2.34375 2.351563-6.148437.007813-8.496094-2.34375-2.34375-6.144532-2.347656-8.492188-.003906l-26.511719 26.503906c-.035156.039063-.066406.078125-.097656.113281-.101563.101563-.199219.207032-.289063.316407-.039062.054687-.078124.109375-.117187.160156-.082031.101563-.160156.199219-.234375.3125-.027344.046875-.054688.09375-.082031.140625-.078125.121094-.152344.238281-.21875.363281-.019531.039063-.039063.078125-.054688.117188-.070312.136719-.140625.273437-.203125.414062-.011718.03125-.019531.0625-.03125.09375-.058594.148438-.117187.296875-.164062.457031-.011719.035157-.019532.070313-.027344.101563-.042969.152344-.085938.304687-.117188.460937-.011718.0625-.019531.125-.027343.1875-.023438.132813-.046875.261719-.058594.394532-.015625.132812-.132813.253906-.136719.382812 0 .070313-.125.136719-.125.210938v.011718c0 .199219.125.398438.144532.585938zm0 0"/><path d="m191.378906 238.460938 77.097656.160156-16.296874 16.300781c-2.34375 2.34375-2.34375 6.140625 0 8.484375 2.339843 2.34375 6.140624 2.34375 8.484374 0l26.511719-26.507812c.035157-.039063.066407-.078126.097657-.113282.101562-.101562.199218-.207031.289062-.320312.039062-.050782.078125-.105469.117188-.15625.082031-.101563.160156-.199219.230468-.3125.03125-.046875.058594-.09375.085938-.140625.078125-.121094.152344-.238281.21875-.363281.019531-.039063.035156-.078126.058594-.117188.066406-.136719.132812-.273438.199218-.414062.011719-.035157.023438-.066407.035156-.101563.058594-.148437.117188-.300781.164063-.453125.007813-.035156.015625-.070312.027344-.105469.042969-.152343.082031-.300781.113281-.464843.015625-.058594.019531-.125.03125-.183594.019531-.132813.046875-.261719.058594-.394532.011718-.132812.128906-.257812.132812-.382812 0-.070312.128906-.140625.128906-.210938v-.011718c0-.195313-.125-.386719-.144531-.578125-.09375-.785157-.339843-1.542969-.726562-2.230469 0-.003906-.035157-.011719-.039063-.019531-.082031-.15625-.191406-.308594-.285156-.453125-.011719-.015625-.027344-.035156-.039062-.050782-.097657-.152343-.214844-.300781-.332032-.445312l-.023437-.027344c-.125-.148437-.253907-.300781-.394531-.433594l-26.519532-26.515624c-2.34375-2.34375-6.144531-2.34375-8.484375 0-2.34375 2.34375-2.34375 6.144531 0 8.484374l16.234375 16.089844-77.007812-.3125h-.011719c-3.335937.082032-6 2.808594-6 6.144532-.003906 3.335937 2.652344 6.070312 5.988281 6.15625zm0 0"/><path d="m433.160156 39.082031c0-21.496093-17.425781-38.921875-38.921875-38.921875h-.160156c-21.492187 0-38.917969 17.425782-38.917969 38.921875v13.160157c0 21.496093 17.425782 38.917968 38.917969 38.917968h.160156c21.496094 0 38.921875-17.421875 38.921875-38.917968zm-12 13.160157c0 14.867187-12.050781 26.917968-26.921875 26.917968h-.160156c-14.867187 0-26.917969-12.050781-26.917969-26.917968v-13.160157c0-14.867187 12.050782-26.921875 26.917969-26.921875h.160156c14.871094 0 26.921875 12.054688 26.921875 26.921875zm0 0"/><path d="m433.738281 109.160156h-6.527343c-2.519532-.027344-4.785157 1.539063-5.648438 3.90625l-8.097656 22.507813-14.621094-15.566407c-1.144531-1.238281-2.761719-1.925781-4.445312-1.898437-1.683594.015625-3.277344.742187-4.402344 1.992187l-13.351563 14.925782-7.109375-21.789063c-.8125-2.453125-3.117187-4.105469-5.703125-4.078125h-7.597656c-11.339844-.027344-22.164063 4.742188-29.796875 13.125-7.632812 8.386719-11.367188 19.609375-10.277344 30.898438v64.136718c-.003906 11.535157 4.65625 22.582032 12.917969 30.628907l5.921875 5.75c5.605469 5.40625 8.925781 12.757812 9.277344 20.539062l5.230468 110.0625c.132813 3.226563 2.753907 5.792969 5.980469 5.859375h79.160157c3.230468-.066406 5.855468-2.628906 5.996093-5.859375l5.238281-110.066406c.363282-7.753906 3.660157-15.082031 9.222657-20.5l6.058593-5.816406c8.25-8.027344 12.933594-19.03125 13-30.539063v-64.199218c1.003907-11.328126-2.804687-22.554688-10.496093-30.929688-7.695313-8.378906-18.554688-13.128906-29.929688-13.089844zm-39.160156 23.816406 7.5 7.980469 8.574219 79.78125-15.675782 15.667969-15.667968-15.667969 8.628906-80.335937zm67.511719 19.3125c.015625.199219.035156.398438.070312.597657v64.492187c-.058594 8.265625-3.433594 16.160156-9.363281 21.917969l-6.011719 5.800781c-7.753906 7.574219-12.351562 17.800782-12.863281 28.628906l-4.992187 104.433594h-67.71875l-4.96875-104.347656c-.496094-10.859375-5.125-21.121094-12.945313-28.675781l-5.882813-5.785157c-5.929687-5.792968-9.265624-13.738281-9.253906-22.03125v-64.429687c-.023437-.203125-.0625-.40625-.105468-.605469-.824219-7.964844 1.777343-15.90625 7.152343-21.839844 5.371094-5.9375 13.015625-9.3125 21.023438-9.285156h3.242187l8.980469 27.542969c.8125 2.464844 3.121094 4.125 5.71875 4.113281.125 0 .246094-.03125.371094-.039062l-7.46875 69.542968c-.195313 1.800782.441406 3.597657 1.722656 4.878907l21.941406 21.9375c2.339844 2.34375 6.140625 2.34375 8.484375 0l21.949219-21.941407c1.285156-1.28125 1.917969-3.078124 1.722656-4.882812l-7.476562-69.546875c.535156.039063 1.074219 0 1.601562-.109375 2.035157-.398438 3.714844-1.832031 4.421875-3.78125l9.988282-27.714844h2.308593c8.023438-.03125 15.6875 3.335938 21.089844 9.265625 5.402344 5.933594 8.042969 13.875 7.261719 21.863281zm0 0"/><path d="m162.160156 294.089844v-56.1875c1.019532-11.546875-2.882812-22.984375-10.742187-31.503906-7.859375-8.519532-18.949219-13.324219-30.539063-13.238282h-79.4375c-11.59375-.089844-22.683594 4.71875-30.542968 13.238282-7.859376 8.519531-11.761719 19.957031-10.738282 31.503906v56.1875c.09375 3.371094 2.839844 6.054687 6.210938 6.070312h149.578125c3.371093-.015625 6.117187-2.699218 6.210937-6.070312zm-84.441406-69.574219h6.941406l6.582032 36.339844-9.957032 9.007812-9.300781-8.953125zm6.765625-12.355469h-6.660156l-1.871094-7h10.40625zm65.601563 24.847656c.015624.199219.039062.402344.074218.601563v50.550781h-138v-50.546875c.035156-.203125.058594-.40625.074219-.609375-.808594-8.175781 1.898437-16.3125 7.445313-22.375 5.589843-6.085937 13.496093-9.527344 21.761718-9.46875h22.164063l3.082031 12.5c0 .03125-.019531-.027344-.023438 0l-7.226562 44.511719c-.046875.308594-.277344.578125-.277344.890625v.007812c.078125 1.65625.8125 3.214844 2.042969 4.324219l15.695313 15c1.136718 1.078125 2.644531 1.679688 4.210937 1.675781 1.496094.003907 2.9375-.550781 4.050781-1.550781l16.59375-15c1.539063-1.390625 2.25-3.476562 1.882813-5.515625l-8.039063-44.234375 3.117188-12.609375h22.164062c8.242188-.082031 16.132813 3.339844 21.703125 9.414063 5.570313 6.074219 8.300781 14.230469 7.503907 22.433593zm0 0"/><path d="m80.101562 189.953125c22.066407-.015625 39.972657-17.863281 40.058594-39.929687v-33.792969c-.132812-14.414063-11.84375-26.039063-26.261718-26.070313h-27.859376c-14.34375.058594-25.925781 11.726563-25.878906 26.070313v33.792969c.007813 22.050781 17.886719 39.925781 39.941406 39.929687zm0-12c-15.425781-.003906-27.933593-12.507813-27.941406-27.929687v-19.261719c8.082032-.257813 15.757813-3.601563 21.449219-9.347657 7.226563 7.761719 16.027344 11.726563 25.671875 11.726563 2.988281-.015625 5.96875-.367187 8.878906-1.050781v17.933594c-.078125 15.441406-12.617187 27.921874-28.058594 27.929687zm28.058594-61.722656v3.410156c-12 3.847656-21.699218.1875-29.398437-11.097656-1.417969-2.035157-2.691407-4.167969-3.800781-6.382813h18.9375c7.792968.023438 14.136718 6.277344 14.261718 14.070313zm-46.007812-13.421875c1.222656 3.023437 2.660156 5.957031 4.300781 8.777344-3.621094 4.199218-8.761719 6.785156-14.292969 7.179687v-2.535156c-.015625-6.195313 4.050782-11.660157 9.992188-13.421875zm0 0"/></g></svg>