<svg height="511pt" viewBox="-11 0 511 511.99922" width="511pt" xmlns="http://www.w3.org/2000/svg"><path d="m110.246094 153.421875c-9.464844 0-18.648438-2.777344-25.847656-7.820313-15.875-11.109374-22.460938-30.710937-16.78125-49.9375 4.386718-14.828124 17.25-30.9375 40.195312-31.671874.417969-.011719.8125-.019532 1.210938-.019532 20.503906 0 41.132812 16.273438 45.050781 35.53125 3.429687 16.910156-3.265625 35.074219-16.664063 45.191406-7.433594 5.628907-17.078125 8.726563-27.164062 8.726563zm0 0" fill="#fff"/><path d="m196.648438 364.460938-.136719-.019532-65.363281-.007812-.054688-1.949219c-.460938-17.609375-.523438-35.214844-.179688-52.320313l.011719-.582031.320313-.484375c1.027344-1.546875 2.050781-3.082031 3.0625-4.578125 13.898437-20.527343 26.515625-42.1875 37.503906-64.382812l.507812-1.023438 1.136719-.085937c1.25-.089844 2.449219-.164063 3.492188-.222656l.605469-.039063c39.113281-2.269531 78.855468-3.542969 118.128906-3.785156 4.722656-.027344 9.460937-.042969 14.195312-.042969 30 0 60.414063.601562 90.394532 1.785156 17.527343.695313 35.199218 1.597656 52.527343 2.683594 1.71875.109375 3.550781.148438 5.328125.1875 10.875.222656 19.453125.9375 22.667969 7.777344 1.765625 3.78125 1.644531 8.574218 1.527344 13.210937v.101563c-.023438.9375-.039063 1.851562-.046875 2.742187l-.675782 96.691407-46.714843-1.714844-.050781-1.875c-.199219-7.441406-1.605469-20.917969-8.757813-27.539063-1.828125-1.691406-4.953125-3.710937-9.441406-3.710937-2.816407 0-5.855469.800781-9.03125 2.375-5.75 2.839844-10.390625 8.476562-12.734375 15.464844-1.558594 4.640624-2.191406 9.71875-1.988282 15.988281l.070313 2.089843-146.617187-1.628906.082031-2.050781c.363281-9.445313-1.132813-17.621094-4.453125-24.292969-2.894532-5.8125-7.75-9.234375-13.671875-9.636718-.382813-.023438-.761719-.035157-1.148438-.035157-7.6875 0-16.167969 4.886719-21.101562 12.164063-4.59375 6.765625-6.957031 15.53125-7.226563 26.792968l-.046875 1.953126zm0 0" fill="#c67045"/><path d="m328.65625 480.460938c-57.128906 0-114.800781-1.089844-171.417969-3.238282-6.679687-.261718-13.289062-1.085937-16.386719-5.332031-1.773437-2.425781-2.269531-5.664063-2.734374-9.644531-3.394532-29.449219-5.65625-59.640625-6.722657-89.742188l-.070312-2.070312 65.308593.007812c.09375 0 .179688-.019531.265626-.035156l2.0625-.328125.242187 2.074219c.839844 7.269531 2.941406 13.007812 6.417969 17.542968 4.132812 5.40625 10.988281 8.898438 17.464844 8.898438 3.25 0 6.246093-.863281 8.910156-2.566406 5.234375-3.335938 7.871094-9.269532 9.402344-13.441406 1.769531-4.851563 3.160156-10.152344 4.011718-15.328126l.28125-1.695312 147.859375 1.640625.269531 1.664063c.816407 5.074218 2.109376 9.457031 3.957032 13.398437 2.4375 5.210937 5.640625 8.71875 9.515625 10.425781 1.816406.796875 3.800781 1.203125 5.902343 1.203125 3.375 0 6.839844-1.089843 9.757813-3.066406 3.820313-2.578125 6.957031-6.710937 9.066406-11.953125 1.125-2.816406 2.042969-7.410156 2.511719-12.59375l.171875-1.886719 46.855469 1.71875-.574219 82.714844c-.0625 10.488281-1.164063 21.871094-8.859375 26.742187-4.015625 2.550782-9.0625 2.890626-15.242188 3.070313-42.347656 1.207031-85.488281 1.820313-128.226562 1.820313zm0 0" fill="#935252"/><path d="m418.332031 504c-6.773437 0-13.585937-.6875-20.246093-2.046875-3.992188-.8125-8.101563-1.914063-11.117188-4.476563-2.765625-2.355468-4.046875-6.117187-2.988281-8.75.085937-.222656.148437-.5.1875-.851562l.1875-1.769531 1.773437-.019531c20.214844-.257813 40.15625-.636719 59.273438-1.128907l1.882812-.050781.164063 1.875c.40625 4.679688-2.566407 9.84375-7.398438 12.84375-5.40625 3.382812-12.183593 4.066406-17.484375 4.289062-1.402344.054688-2.828125.085938-4.234375.085938zm0 0" fill="#939baa"/><path d="m229.429688 163.894531-.015626-.269531c-.03125-.414062-.070312-.980469-.046874-1.457031l.058593-1.402344 1.339844-.421875c.636719-.199219 1.585937-.328125 2.894531-.398438 23.566406-1.234374 47.578125-1.863281 71.367188-1.863281 24.667968 0 49.589844.675781 74.066406 2.003907l1.910156.105468-.449218 41.972656h-1.980469c-.101563 0-.199219-.007812-.292969-.019531l-24.488281.464844-.296875-10.46875c-.078125-2.582031-.21875-7.339844-3.710938-10.097656-2.269531-1.796875-5.054687-2.003907-6.957031-2.003907-.613281 0-1.183594.019532-1.679687.042969l-84.277344 3.589844c-.839844.035156-1.628906.425781-2.167969 1.070313-.546875.648437-.789063 1.492187-.675781 2.320312l2.441406 18.269531-23.558594 1.621094zm0 0" fill="#939baa"/><path d="m206.585938 501.230469c-5.402344 0-10.96875-.324219-16.546876-.960938-5.277343-.605469-10.679687-1.597656-14.460937-4.726562-3.007813-2.488281-4.910156-7.394531-2.933594-10.730469l.605469-1.019531 1.183594.042969c18.183594.617187 36.902344 1.136718 55.636718 1.539062l1.699219.035156.234375 1.6875c.058594.398438.1875.765625.382813 1.09375 1.523437 2.566406.183593 6.808594-2.859375 9.09375-3.332032 2.488282-7.953125 3.167969-12.449219 3.53125-3.421875.273438-6.953125.414063-10.492187.414063zm0 0" fill="#939baa"/><g fill="#ffbf48"><path d="m413.195312 387.902344c-1.253906 0-2.425781-.234375-3.476562-.699219-2.515625-1.109375-4.703125-3.628906-6.503906-7.484375-2.285156-4.859375-3.652344-10.707031-4.183594-17.867188-.507812-6.855468-.023438-12.203124 1.527344-16.824218 1.839844-5.492188 5.378906-9.863282 9.699218-12 2.355469-1.164063 4.503907-1.753906 6.398438-1.753906 3.046875 0 4.65625 1.484374 5.34375 2.117187 8.390625 7.769531 8.128906 34.105469 4.449219 43.246094-1.148438 2.867187-3.269531 6.796875-6.855469 9.222656-1.941406 1.316406-4.21875 2.042969-6.398438 2.042969zm0 0"/><path d="m378.21875 229.960938c-7.230469-.207032-14.554688-.390626-21.765625-.539063l-1.902344-.039063-.59375-20.78125 26.53125-.496093-.234375 21.914062zm0 0"/><path d="m233.398438 212.9375 23.859374-1.648438 2.4375 18.210938-2.234374.054688c-7.730469.175781-14.222657.339843-20.769532.558593l-1.90625.0625zm0 0"/><path d="m223.054688 392.574219c-4.59375 0-9.683594-2.617188-12.667969-6.515625-3.863281-5.046875-5.695313-12.324219-5.601563-22.246094.113282-10.636719 2.144532-18.726562 6.214844-24.730469 3.746094-5.523437 10.527344-9.527343 16.121094-9.527343.257812 0 .511718.007812.765625.023437 3.828125.257813 6.757812 2.382813 8.707031 6.316406 6.597656 13.273438 3.675781 32.335938-.832031 44.628907-1.226563 3.351562-3.285157 8.085937-6.988281 10.457031-1.664063 1.058593-3.585938 1.59375-5.71875 1.59375zm0 0"/></g><path d="m107.929688 327.421875c-34-31.824219-56.738282-79.832031-72.75-118.097656-5.570313-13.308594-10.625-27.023438-15.019532-40.773438-8.515625-26.625-17.050781-61.3125-7.339844-93.476562 8.277344-27.445313 30.289063-50.820313 57.453126-61.003907 10.730468-4.03125 22.144531-6.078124 33.914062-6.078124 17.59375 0 34.84375 4.617187 49.882812 13.351562 24.9375 14.488281 43.160157 40.253906 48.75 68.917969 6.476563 33.234375-3.789062 67.65625-13.457031 93.929687-15.152343 41.167969-35.34375 80.519532-60.019531 116.960938-1.296875 1.925781-2.605469 3.890625-3.921875 5.875-4.601563 6.945312-9.328125 14.078125-14.605469 20.238281l-1.363281 1.585937zm1.101562-269.453125c-.472656 0-.941406.007812-1.410156.023438-21.546875.691406-39.507813 14.8125-45.757813 35.976562-6.421875 21.726562 1.074219 43.921875 19.089844 56.542969 8.277344 5.796875 18.683594 8.988281 29.300781 8.988281 11.300782 0 22.230469-3.554688 30.777344-10.015625 15.199219-11.488281 22.804688-32.054687 18.925781-51.175781-4.449219-21.867188-27.769531-40.339844-50.925781-40.339844zm0 0" fill="#d34242"/><path d="m161.914062 97.910156c-4.78125-23.511718-29.671874-42.710937-54.355468-41.914062-22.417969.71875-41.109375 15.402344-47.613282 37.40625-6.671874 22.570312 1.125 45.632812 19.863282 58.753906 8.910156 6.238281 19.683594 9.34375 30.449218 9.34375 11.40625 0 22.808594-3.484375 31.980469-10.414062 15.804688-11.949219 23.710938-33.316407 19.675781-53.175782zm-25.707031 45.195313c-14.226562 10.753906-36.007812 11.121093-50.660156.859375-15.160156-10.613282-21.445313-29.351563-16.011719-47.730469 4.1875-14.160156 16.457032-29.542969 38.34375-30.242187.386719-.011719.769532-.019532 1.152344-.019532 19.40625 0 39.355469 15.59375 43.082031 33.925782 3.285157 16.167968-3.105469 33.53125-15.90625 43.207031zm0 0" fill="#231f20"/><path d="m488.035156 243.984375c-5.558594-11.878906-19.535156-12.175781-29.742187-12.390625-1.796875-.039062-3.492188-.074219-4.988281-.167969-17.46875-1.09375-35.203126-2-52.714844-2.695312-4.097656-.160157-8.207032-.308594-12.316406-.449219l.761718-70.863281c.03125-2.667969-2.042968-4.890625-4.707031-5.042969-50.117187-2.910156-100.949219-3.050781-151.082031-.414062-2.289063.121093-7.644532.402343-10.425782 4.851562-1.753906 2.816406-1.503906 5.890625-1.359374 7.726562l5.164062 63.921876c-16.066406.582031-32.105469 1.324218-48.054688 2.238281 6.722657-14.316407 12.839844-28.914063 18.296876-43.75 10.03125-27.257813 20.660156-63.054688 13.800781-98.21875-6.023438-30.898438-25.683594-58.675781-52.582031-74.304688-27.40625-15.921875-61.285157-18.855469-90.625-7.847656-29.441407 11.046875-53.3125 36.40625-62.300782 66.1875-10.34375 34.265625-1.488281 70.492187 7.382813 98.226563 4.457031 13.9375 9.589843 27.871093 15.257812 41.417968 17.042969 40.722656 41.367188 91.660156 78.539063 124.375.949218.832032 2.125 1.242188 3.300781 1.242188 1.3125 0 2.621094-.511719 3.601563-1.527344 3.40625-3.53125 6.523437-7.410156 9.484374-11.433594-.3125 46.058594 2.183594 92.4375 7.449219 138.09375.445313 3.851563 1.054688 9.125 4.214844 13.449219 5.820313 7.964844 16.703125 8.378906 22.546875 8.601563 2.355469.089843 4.71875.164062 7.074219.25-1.015625 6.039062 1.945312 12.507812 6.46875 16.25 5.386719 4.453124 12.148437 5.757812 18.648437 6.503906 5.871094.675781 11.695313 1.011718 17.417969 1.011718 3.769531 0 7.496094-.144531 11.164063-.4375 5.695312-.457031 11.652343-1.394531 16.609374-5.105468 4.710938-3.53125 7.839844-10.03125 6.359376-16.082032 29.308593.566407 58.667968.855469 88.015624.855469 15.726563 0 31.449219-.085937 47.15625-.246093-1 5.34375 1.238282 11.359374 5.9375 15.355468 4.390626 3.738282 9.894532 5.242188 14.695313 6.226563 7.1875 1.464843 14.519531 2.207031 21.855469 2.207031 1.519531 0 3.042968-.03125 4.566406-.097656 6.273438-.261719 14.375-1.125 21.382812-5.488282 7.242188-4.515624 11.558594-12.261718 11.171876-19.734374.550781-.015626 1.101562-.027344 1.648437-.042969 5.835937-.167969 13.101563-.371094 19.304687-4.304688 10.925782-6.929687 12.488282-20.800781 12.574219-33.457031l1.285157-185.402344c.007812-.878906.027343-1.78125.050781-2.699218.128906-5.300782.273437-11.3125-2.289063-16.789063zm-131.542968-16.5625-.476563-16.855469 22.449219-.425781-.191406 17.824219c-7.25-.214844-14.511719-.394532-21.78125-.542969zm-89.015626-.089844-4.800781-35.898437 78.78125-3.359375c1.933594-.082031 3.0625-.003907 3.363281.234375.132813.109375.585938.71875.679688 4.058594l.984375 34.867187c-16.984375-.269531-33.96875-.359375-50.847656-.253906-9.359375.058593-18.753907.179687-28.160157.351562zm-33.707031-65.386719c48.183594-2.535156 97.007813-2.484374 145.214844.140626l-.410156 38.074218c-.066407-.003906-.132813-.019531-.203125-.019531l-22.636719.429687-.238281-8.484374c-.078125-2.683594-.234375-8.269532-4.472656-11.617188-3.367188-2.667969-7.515626-2.488281-9.992188-2.386719l-84.246094 3.59375c-1.40625.058594-2.71875.707031-3.621094 1.785157-.902343 1.074218-1.308593 2.480468-1.125 3.871093l2.160157 16.152344-19.453125 1.339844-3.316406-41.09375c-.027344-.335938-.085938-1.019531-.070313-1.476563.355469-.105468 1.054687-.238281 2.410156-.308594zm1.78125 52.847657 19.976563-1.378907 1.890625 14.136719c-6.929688.15625-13.859375.335938-20.792969.558594zm-57.875 25.96875c39.113281-2.265625 78.820313-3.539063 118.023438-3.78125 34.691406-.21875 69.847656.371093 104.496093 1.742187 17.433594.691406 35.089844 1.59375 52.484376 2.683594 1.703124.105469 3.5.144531 5.402343.183594 10.183594.214844 18.1875.839844 20.898438 6.632812 1.566406 3.34375 1.453125 7.902344 1.347656 12.3125-.023437.972656-.046875 1.933594-.050781 2.871094l-.65625 94.636719-42.785156-1.574219c-.300782-11.105469-2.816407-22.855469-9.394532-28.941406-3.136718-2.902344-10-6.980469-20.730468-1.667969-6.214844 3.074219-11.21875 9.132813-13.734376 16.621094-1.628906 4.851562-2.304687 10.222656-2.09375 16.6875l-142.464843-1.570313c.339843-8.792968-.890625-17.679687-4.664063-25.269531-3.21875-6.472656-8.664062-10.28125-15.328125-10.730469-8.566406-.585937-18.457031 4.765625-24.042969 12.996094-4.808593 7.085938-7.28125 16.214844-7.5625 27.871094-.0625-.003906-.121093-.019532-.183593-.019532l-63.542969-.015624c-.460938-17.433594-.523438-34.863282-.175781-52.234376 1.019531-1.535156 2.035156-3.0625 3.050781-4.558593 14-20.671875 26.578125-42.277344 37.636719-64.609375 1.492187-.109375 2.90625-.195313 4.070312-.265625zm246.917969 135.136719c-1.050781 2.613281-2.964844 6.175781-6.113281 8.304687-2.542969 1.71875-5.667969 2.179687-7.953125 1.167969-2.058594-.90625-3.910156-3.09375-5.503906-6.496094-2.183594-4.660156-3.492188-10.277344-4-17.171875-.484376-6.597656-.03125-11.695313 1.429687-16.039063 1.675781-4.984374 4.84375-8.9375 8.695313-10.84375 6.152343-3.046874 8.582031-.800781 9.5.046876 7.695312 7.121093 7.367187 32.519531 3.945312 41.03125zm-190.707031 3.933593c-1.128907 3.085938-3 7.421875-6.1875 9.457031-4.878907 3.113282-12.203125.15625-15.726563-4.449218-3.585937-4.6875-5.277344-11.558594-5.183594-21.011719.105469-10.234375 2.023438-17.960937 5.867188-23.621094 3.570312-5.261719 10.058594-8.96875 15.097656-8.636719 3.101563.210938 5.410156 1.914063 7.046875 5.210938 6.316407 12.699219 3.453125 31.128906-.914062 43.050781zm-124.589844-53.867187c-33.613281-31.464844-56.214844-79.050782-72.269531-117.414063-5.558594-13.28125-10.589844-26.941406-14.960938-40.605469-8.429687-26.355468-16.878906-60.660156-7.332031-92.292968 8.105469-26.855469 29.652344-49.734375 56.238281-59.710938 10.625-3.984375 21.90625-5.953125 33.214844-5.953125 16.960938 0 33.972656 4.425781 48.875 13.085938 24.441406 14.199219 42.308594 39.460937 47.792969 67.570312 6.382812 32.734375-3.792969 66.816407-13.371094 92.855469-15.097656 41.027344-35.214844 80.234375-59.796875 116.53125-1.308594 1.929688-2.613281 3.902344-3.933594 5.894531-4.5625 6.878907-9.253906 13.953125-14.457031 20.039063zm121.375 163.261718c.992187 1.667969-.148437 4.808594-2.351563 6.457032-2.921874 2.1875-7.210937 2.800781-11.410156 3.136718-8.585937.6875-17.546875.507813-26.640625-.535156-4.972656-.574218-10.039062-1.484375-13.414062-4.277344-2.359375-1.949218-3.875-5.847656-2.492188-8.175781 18.515625.628907 37.078125 1.140625 55.660157 1.546875.089843.632813.300781 1.261719.648437 1.847656zm208.328125 8.699219c-5.023438 3.132813-11.464844 3.777344-16.515625 3.988281-8.035156.339844-16.113281-.308593-24-1.917968-3.734375-.765625-7.558594-1.78125-10.214844-4.042969-2.109375-1.792969-3.175781-4.640625-2.433593-6.480469.183593-.457031.269531-.921875.316406-1.386718 19.804687-.25 39.582031-.628907 59.308594-1.136719.339843 3.90625-2.25 8.355469-6.460938 10.976562zm32.058594-24.039062c-3.597656 2.28125-8.367188 2.589843-14.234375 2.753906-99.386719 2.828125-200.15625 2.351563-299.507813-1.421875-6.175781-.234375-12.25-.945312-14.855468-4.507812-1.484376-2.03125-1.929688-5.011719-2.351563-8.695313-3.421875-29.652344-5.65625-59.609375-6.710937-89.585937l63.234374.015624c.199219 0 .390626-.035156.582032-.058593.878906 7.597656 3.132812 13.710937 6.816406 18.527343 4.28125 5.597657 11.65625 9.675782 19.058594 9.675782 3.425781 0 6.855468-.875 9.988281-2.875 5.738281-3.660156 8.570313-9.996094 10.195313-14.441406 1.714843-4.679688 3.175781-10.046876 4.109374-15.6875l144.460938 1.59375c.84375 5.226562 2.203125 9.835937 4.125 13.9375 2.648438 5.652343 6.1875 9.492187 10.519531 11.402343 2.09375.921875 4.378907 1.375 6.707031 1.375 3.722657 0 7.554688-1.160156 10.882813-3.40625 4.152344-2.808593 7.539063-7.253906 9.792969-12.859375 1.179687-2.933594 2.160156-7.664062 2.652344-13.164062l43.023437 1.582031-.558594 80.761719c-.066406 9.957031-1.0625 20.726562-7.929687 25.078125zm0 0" fill="#231f20"/></svg>